<svg width="3085" height="1676" viewBox="0 0 3085 1676" fill="none" xmlns="http://www.w3.org/2000/svg">
<g clip-path="url(#clip0_237_263)">
<path fill-rule="evenodd" clip-rule="evenodd" d="M2329.92 25.3646C2327.65 22.1263 2324.38 23.3039 2326.42 9.29099C2334.04 -13.6595 2324.33 13.6008 2325.23 9.70314C2326.36 16.4741 2330.52 13.1769 2333.07 12.8119C2332.29 15.85 2331.23 20.7486 2329.92 25.3646Z" fill="#1A1A1A"/>
<path fill-rule="evenodd" clip-rule="evenodd" d="M2814.2 1429.68C2831.84 1400.42 2846.22 1368.23 2860.34 1339.53C2867.84 1351.09 2889.36 1477.62 2919.08 1676H2854.77C2835.3 1530.37 2820.82 1440.07 2814.2 1429.68Z" fill="#1A1A1A"/>
<path fill-rule="evenodd" clip-rule="evenodd" d="M2869.27 1345.74C2883.52 1318.58 2896.77 1292.71 2910.17 1273.05C2917.47 1283.59 2943.5 1438.68 2979.29 1676H2921.17C2895.16 1481.2 2876.25 1356.89 2869.27 1345.74Z" fill="#1A1A1A"/>
<path fill-rule="evenodd" clip-rule="evenodd" d="M2916.59 1265.16C2928.6 1248.08 2940.07 1231.85 2951.4 1216.42C2964.81 1293.85 2978.39 1370.25 2991.43 1446.18C3004.68 1523.28 3017.77 1600 3030.5 1675.84L3029.65 1675.99H2977.4C2957.92 1541.05 2937.24 1403.64 2916.59 1265.15V1265.16Z" fill="#1A1A1A"/>
<path fill-rule="evenodd" clip-rule="evenodd" d="M2956.11 1208.39C2966.14 1192.41 2975.71 1178.2 2984.82 1164.81C3002.09 1249.81 3019.33 1333.87 3035.94 1416.33C3052.69 1499.61 3069.14 1581.95 3085 1662.68V1665.99C3069.94 1668.83 3054.46 1671.64 3038.57 1674.21C3025.61 1597.77 3011.9 1520.14 2998.07 1441.83C2984.48 1364.84 2970.01 1287.11 2956.11 1208.39Z" fill="#1A1A1A"/>
<path fill-rule="evenodd" clip-rule="evenodd" d="M2989.35 1158.88C2997.94 1146.08 3004.7 1133.16 3010.67 1119.44C3031.69 1210.83 3052.95 1301.42 3072.63 1390.58L3085 1446.65V1627.3C3070.96 1556.77 3056.38 1485.22 3041.65 1412.93C3024.67 1329.49 3007.1 1244.46 2989.34 1158.89L2989.35 1158.88Z" fill="#1A1A1A"/>
<path fill-rule="evenodd" clip-rule="evenodd" d="M3015.05 1114.26C3022.33 1102.77 3028.87 1091.85 3034.63 1079.83C3051.56 1148.31 3068.43 1216.21 3085 1283.44V1419.06L3077.88 1387.57C3057.69 1298.12 3036.56 1206.67 3015.05 1114.27V1114.26Z" fill="#1A1A1A"/>
<path fill-rule="evenodd" clip-rule="evenodd" d="M3037.86 1074.82C3043.62 1065.33 3047.56 1054.18 3051.47 1043.09C3062.77 1085.34 3073.95 1127.34 3085 1169.06V1263.95C3069.39 1201.59 3053.55 1138.51 3037.86 1074.84V1074.82Z" fill="#1A1A1A"/>
<path fill-rule="evenodd" clip-rule="evenodd" d="M3055.68 1040.11C3059.58 1030.47 3063.11 1020.57 3065.61 1011.02L3085 1079.89V1150.01C3075.32 1113.58 3065.55 1076.92 3055.68 1040.11Z" fill="#1A1A1A"/>
<path fill-rule="evenodd" clip-rule="evenodd" d="M3067.2 1003.45C3070.33 994.149 3072.81 985.247 3074.97 977.275L3085 1011.48V1066.5L3067.2 1003.45Z" fill="#1A1A1A"/>
<path fill-rule="evenodd" clip-rule="evenodd" d="M3075.65 972.306C3077.46 963.874 3078.26 955.396 3079.4 947.212L3085 965.758V1003.96L3075.65 972.306Z" fill="#1A1A1A"/>
<path fill-rule="evenodd" clip-rule="evenodd" d="M3079.86 944.115C3080.66 936.049 3080.13 926.994 3079.3 918.397L3085 936.756V961.048L3079.86 944.115Z" fill="#1A1A1A"/>
<path fill-rule="evenodd" clip-rule="evenodd" d="M3078.96 912.498C3078.88 905.668 3077.45 897.696 3076.01 889.253L3085 918.056V931.845L3078.96 912.498Z" fill="#1A1A1A"/>
<path fill-rule="evenodd" clip-rule="evenodd" d="M3075.87 887.098C3074.52 879.903 3072.24 872.979 3069.62 865.125L3084.99 914.512V916.148L3075.86 887.098H3075.87Z" fill="#1A1A1A"/>
<path fill-rule="evenodd" clip-rule="evenodd" d="M3068.12 860.485C3064.94 853.656 3061.43 846.178 3058.98 840.337C3067.63 868.304 3076.32 896.271 3085 924.179V914.665C3079.33 896.613 3073.69 878.573 3068.12 860.485Z" fill="#1A1A1A"/>
<path fill-rule="evenodd" clip-rule="evenodd" d="M3056.28 835.886C3052.55 829.398 3047.59 822.097 3042.66 815.208C3056.8 861.38 3070.97 907.529 3085.01 953.548V928.819C3075.41 897.849 3065.79 866.821 3056.29 835.886H3056.28Z" fill="#1A1A1A"/>
<path fill-rule="evenodd" clip-rule="evenodd" d="M2319.2 1676C2353.4 1642.84 2385.89 1611.99 2416.73 1580.5C2435.7 1611.62 2455.55 1643.74 2475.34 1676H2319.2Z" fill="#1A1A1A"/>
<path fill-rule="evenodd" clip-rule="evenodd" d="M2434.33 1564.59C2469.63 1527.57 2502.37 1496.88 2533.18 1468.54C2567.99 1516.42 2600.25 1562.9 2634.29 1614.41C2619.07 1633.02 2603.54 1653.91 2587.28 1676.01H2504.11C2480.68 1637.78 2457.43 1600.81 2434.33 1564.59Z" fill="#1A1A1A"/>
<path fill-rule="evenodd" clip-rule="evenodd" d="M2547.61 1453.36C2578.14 1426.16 2605.03 1400.3 2631.13 1375.42C2661.65 1416.24 2692.96 1459.79 2723.48 1502.75C2700.18 1532.48 2674.46 1562.88 2648 1596.48C2614.36 1547.93 2582.15 1500.86 2547.61 1453.36Z" fill="#1A1A1A"/>
<path fill-rule="evenodd" clip-rule="evenodd" d="M2643.78 1363.97C2667.85 1342.93 2690.93 1321.57 2712.54 1301.73C2739.59 1337.49 2767.65 1372.23 2796.08 1409.29C2776.29 1433.67 2756.1 1459.41 2734.59 1488.37C2704.29 1446.67 2673.65 1403.66 2643.77 1363.97H2643.78Z" fill="#1A1A1A"/>
<path fill-rule="evenodd" clip-rule="evenodd" d="M2787.54 1228.73C2804.11 1212.35 2820.42 1197.74 2836.17 1183.61C2858.5 1209.99 2882.9 1239.02 2905.16 1267.08C2892.54 1284.02 2877.89 1302.1 2863.29 1322.71C2837.93 1289.57 2813.17 1260.68 2787.54 1228.73Z" fill="#1A1A1A"/>
<path fill-rule="evenodd" clip-rule="evenodd" d="M2845.32 1178.75C2859.4 1165 2873.65 1152.52 2886.03 1138.58C2906 1162.09 2926.94 1186.33 2946.41 1209.84C2935.79 1225.73 2923.96 1241.65 2911.6 1258.62C2890 1232.19 2866.98 1204.63 2845.32 1178.75Z" fill="#1A1A1A"/>
<path fill-rule="evenodd" clip-rule="evenodd" d="M2894.99 1130.55C2906.44 1117.91 2917.41 1106.41 2927.92 1094.97C2946.17 1115.71 2964.99 1137.62 2982.29 1158.05C2973.91 1171.16 2964 1184.44 2953.63 1199.07C2934.18 1175.8 2913.6 1152.5 2894.98 1130.55H2894.99Z" fill="#1A1A1A"/>
<path fill-rule="evenodd" clip-rule="evenodd" d="M2934.52 1088.6C2944.52 1078.8 2953.41 1068.61 2962.91 1059.15C2978.72 1076.92 2995.4 1095.12 3011.23 1112.89C3004.57 1125.69 2996.77 1138.27 2989.61 1151.8C2971.25 1131.22 2952.1 1109.4 2934.52 1088.6Z" fill="#1A1A1A"/>
<path fill-rule="evenodd" clip-rule="evenodd" d="M2966.6 1054.2C2974.96 1045.21 2982.58 1034.76 2989.14 1025.46C3003.86 1041.31 3017.7 1056.92 3033.42 1073.8C3026.96 1085.17 3020.42 1095.93 3013.51 1107.61C2998.06 1090.39 2982.08 1072.53 2966.59 1054.2H2966.6Z" fill="#1A1A1A"/>
<path fill-rule="evenodd" clip-rule="evenodd" d="M2993.36 1018.14C3000.47 1009.86 3006.58 1002 3012.96 993.902C3026.61 1008.68 3040.09 1023.88 3051.88 1036.84C3047.95 1047.07 3042.61 1056.68 3038.28 1067.68C3023.61 1051.17 3008.4 1034.17 2993.35 1018.14H2993.36Z" fill="#1A1A1A"/>
<path fill-rule="evenodd" clip-rule="evenodd" d="M3015.51 991.347C3021.17 983.28 3025.78 974.531 3030.73 967.454C3041.59 978.735 3052.56 991.217 3063.26 1003.28C3060.08 1012.64 3057.24 1022.59 3053.35 1032.23C3040.87 1018.51 3028.45 1004.78 3015.51 991.347Z" fill="#1A1A1A"/>
<path fill-rule="evenodd" clip-rule="evenodd" d="M3032.83 962.662C3037.72 955.891 3040.64 948.072 3043.54 940.806C3052.96 950.639 3062.8 960.931 3072.01 970.975C3070.21 979.571 3067.4 988.038 3065.62 998.177C3054.95 986.648 3043.3 973.672 3032.81 962.662H3032.83Z" fill="#1A1A1A"/>
<path fill-rule="evenodd" clip-rule="evenodd" d="M3045.66 937.662C3047.87 930.091 3050.43 923.72 3052.63 916.584C3061.01 925.298 3068.45 933.835 3077.24 943.044C3076.08 950.863 3074.94 959.294 3073.14 967.431C3063.58 956.927 3054.41 946.977 3045.66 937.674V937.662Z" fill="#1A1A1A"/>
<path fill-rule="evenodd" clip-rule="evenodd" d="M3053.66 911.485C3054.9 904.502 3056.46 898.32 3056.71 890.937C3064.37 899.215 3071.06 906.457 3077.43 913.193C3078.26 921.907 3078.06 929.537 3077.6 938.075C3070.15 929.973 3061.39 920.152 3053.66 911.497V911.485Z" fill="#1A1A1A"/>
<path fill-rule="evenodd" clip-rule="evenodd" d="M2940.83 719.58C2931.15 714.387 2922.07 709.5 2912.11 705.52C2912.12 706.944 2911.82 707.804 2910.92 707.71C2921.5 712.655 2932.71 719.203 2941.51 723.901C2941.47 721.982 2941.47 721.428 2940.83 719.58Z" fill="#1A1A1A"/>
<path fill-rule="evenodd" clip-rule="evenodd" d="M3057.9 865.867C3056.6 859.226 3055.65 852.855 3054.11 847.262C3058.02 851.124 3063.26 856.776 3067.55 861.628C3069.86 869.141 3072.13 876.489 3074.47 884.096C3068.16 877.419 3063.5 872.073 3057.91 865.867H3057.9Z" fill="#1A1A1A"/>
<path fill-rule="evenodd" clip-rule="evenodd" d="M3052.31 842.222C3050.13 836.075 3047.68 829.834 3045.22 823.828C3049.12 828.315 3052.06 832.201 3055.98 836.534C3060.06 843.741 3063.22 850.594 3066.43 858.142C3061.46 852.301 3057.52 847.756 3052.3 842.222H3052.31Z" fill="#1A1A1A"/>
<path fill-rule="evenodd" clip-rule="evenodd" d="M3006.06 769.531C3000.42 763.655 2994.5 758.25 2988.3 753.398C2989.87 755.589 2991.46 757.885 2992.73 759.734C2999.59 765.822 3006.13 771.474 3012.41 777.291C3010.19 774.854 3008.91 773.028 3006.06 769.531Z" fill="#1A1A1A"/>
<path fill-rule="evenodd" clip-rule="evenodd" d="M1967.7 1621.15C2027.44 1581.01 2079.16 1542.98 2133.14 1508.03C2165.32 1562.55 2198.78 1616.45 2232.57 1676.01H1997.1C1987.39 1657.52 1977.59 1639.24 1967.7 1621.15Z" fill="#1A1A1A"/>
<path fill-rule="evenodd" clip-rule="evenodd" d="M2157.33 1492.55C2204.8 1459.14 2249.21 1427.15 2290.3 1397.83C2324.77 1449.04 2358.9 1500.06 2392.89 1554.24C2352.99 1591.11 2312.16 1632.16 2265.49 1672.02C2229.71 1609.24 2192.52 1550.65 2157.33 1492.55Z" fill="#1A1A1A"/>
<path fill-rule="evenodd" clip-rule="evenodd" d="M2309.97 1384.15C2349.34 1361.4 2384.19 1336.31 2418.07 1312.95C2449.33 1354.73 2481.63 1398.53 2512.84 1444.23C2481.06 1473.97 2448.46 1504.31 2411.92 1539.12C2377.1 1484.6 2344.55 1433.24 2309.97 1384.15Z" fill="#1A1A1A"/>
<path fill-rule="evenodd" clip-rule="evenodd" d="M2433.5 1300.53C2466.14 1279.54 2495.9 1258.27 2524.56 1240.41C2553.25 1276.17 2583.78 1316.72 2612.92 1358.07C2586.23 1381.47 2557.79 1404.3 2527.1 1430.52C2497.06 1386.85 2464.98 1343.46 2433.5 1300.53Z" fill="#1A1A1A"/>
<path fill-rule="evenodd" clip-rule="evenodd" d="M2538.22 1231.7C2565.52 1215.53 2590.19 1198.31 2614.66 1184.25C2641.87 1216.18 2667.95 1249.37 2695.73 1285.04C2673.89 1304.05 2649.85 1323.43 2625.73 1344.97C2596.88 1307.2 2566.98 1267.2 2538.22 1231.7Z" fill="#1A1A1A"/>
<path fill-rule="evenodd" clip-rule="evenodd" d="M2863.61 687.314C2869.96 686.667 2875.7 685.984 2880.82 684.995C2891.33 695.322 2900.97 704.954 2911.27 714.751C2906.13 715.458 2901.29 717.13 2895.84 718.402C2885.23 708.416 2875 698.03 2863.61 687.314Z" fill="#1A1A1A"/>
<path fill-rule="evenodd" clip-rule="evenodd" d="M2700.22 1126.65C2719.54 1115.12 2737.03 1102.91 2755.01 1091.7C2777.28 1118.12 2800.22 1144.68 2822.73 1171.68C2806.68 1184.57 2790.04 1198.84 2772.14 1213.19C2748.43 1184.08 2724.65 1155.6 2700.22 1126.65Z" fill="#1A1A1A"/>
<path fill-rule="evenodd" clip-rule="evenodd" d="M2765.04 1088.11C2781.07 1076.88 2797.23 1066.78 2812.6 1056.45C2831.73 1078.46 2851.74 1101.48 2870.94 1124.73C2857.87 1137.74 2843.98 1150.07 2829.54 1163.48C2808.32 1139 2786.71 1113.51 2765.04 1088.11Z" fill="#1A1A1A"/>
<path fill-rule="evenodd" clip-rule="evenodd" d="M2822.17 1050.34C2836.61 1041.59 2848.23 1031.36 2861.06 1023.02C2879.29 1043.32 2897.69 1063.41 2914.93 1083.44C2904.42 1094.42 2892.76 1105.13 2880.26 1117.16C2860.4 1092.99 2841.01 1071.26 2822.19 1050.34H2822.17Z" fill="#1A1A1A"/>
<path fill-rule="evenodd" clip-rule="evenodd" d="M2868.32 1017.45C2880.35 1009.05 2891.27 1000.52 2902.75 993.938C2918.68 1011.15 2935.41 1029.08 2952.34 1049.22C2943.18 1058.71 2933.59 1067.98 2922.88 1078.77C2905.29 1058.89 2886.55 1037.29 2868.32 1017.45Z" fill="#1A1A1A"/>
<path fill-rule="evenodd" clip-rule="evenodd" d="M2906.81 990.322C2916.86 982.35 2926.52 975.638 2934.79 967.914C2949.38 983.681 2964.43 1000.03 2978.96 1015.38C2971.38 1024.31 2963.74 1034.17 2954.68 1043.84C2938.8 1025.3 2922.74 1007.81 2906.81 990.311V990.322Z" fill="#1A1A1A"/>
<path fill-rule="evenodd" clip-rule="evenodd" d="M2940.71 962.626C2949.55 956.88 2956.68 949.214 2963.77 942.631C2977.68 957.092 2991.72 972.306 3005.55 987.79C2998.14 994.503 2992.37 1003.46 2985.55 1011.62C2971.01 995.527 2955.29 978.523 2940.71 962.638V962.626Z" fill="#1A1A1A"/>
<path fill-rule="evenodd" clip-rule="evenodd" d="M2967.66 940.559C2975.35 934.966 2980.38 927.512 2986.69 921.118C2998.6 933.482 3010.92 946.647 3022.33 959.2C3016.71 966.218 3011.74 974.061 3006.07 982.162C2993.28 968.255 2980.57 954.313 2967.66 940.559Z" fill="#1A1A1A"/>
<path fill-rule="evenodd" clip-rule="evenodd" d="M3021.65 878.749C3024.22 872.626 3026.5 867.185 3028.45 861.568C3036.62 870.188 3043.85 877.819 3051.43 885.897C3050.19 892.444 3048.28 898.473 3047.7 906.139C3038.43 896.589 3030.15 887.592 3021.63 878.761L3021.65 878.749Z" fill="#1A1A1A"/>
<path fill-rule="evenodd" clip-rule="evenodd" d="M3030.56 859.59C3031.22 853.043 3033.19 848.557 3033.54 843.081C3039.72 849.51 3046.26 856.458 3052.48 863.229C3052.8 869.47 3052.2 875.994 3051.57 882.211C3044.64 874.639 3037.75 866.938 3030.56 859.59Z" fill="#1A1A1A"/>
<path fill-rule="evenodd" clip-rule="evenodd" d="M3032.58 821.579C3032.07 817.505 3030.58 811.499 3029.46 806.989C3033.64 811.593 3038.17 816.786 3042.03 821.026C3045.1 827.396 3047.25 833.449 3049.11 839.572C3043.61 833.979 3038.39 827.832 3032.59 821.591L3032.58 821.579Z" fill="#1A1A1A"/>
<path fill-rule="evenodd" clip-rule="evenodd" d="M3022.05 790.798C3019.75 786.841 3016.19 780.906 3011.4 775.007C3013.95 778.339 3017.14 781.931 3018.44 784.498C3024.18 791.363 3028.38 796.827 3032.92 803.009C3029.7 799.182 3025.55 794.731 3022.03 790.798H3022.05Z" fill="#1A1A1A"/>
<path fill-rule="evenodd" clip-rule="evenodd" d="M2989.69 749.901C2985.32 745.085 2980.68 740.81 2976.37 736.983C2979.17 740.598 2981.68 744.025 2984.46 746.993C2989.74 751.879 2995.04 757.167 2999.71 761.394C2995.94 757.19 2993.13 754.011 2989.68 749.901H2989.69Z" fill="#1A1A1A"/>
<path fill-rule="evenodd" clip-rule="evenodd" d="M3001.09 774.289C3000.36 770.615 2998.7 766.658 2997.96 762.949C3002.37 768.142 3007.11 773.358 3011.53 778.057C3013.19 782.355 3015.51 787.053 3017.23 791.693C3012.15 786.288 3006.45 780.506 3001.09 774.289Z" fill="#1A1A1A"/>
<path fill-rule="evenodd" clip-rule="evenodd" d="M980.208 1056.83C1077.6 1036.37 1167.1 1016.19 1251.38 997C1283.87 1049.29 1317.03 1099.23 1348.08 1152.83C1266.32 1175.54 1176.11 1204.81 1076.23 1234.63C1043.73 1172.91 1012.23 1114.53 980.196 1056.83H980.208Z" fill="#1A1A1A"/>
<path fill-rule="evenodd" clip-rule="evenodd" d="M1541.88 997.776C1609.87 982.727 1669.7 967.89 1729.23 956.668C1758.43 996.14 1790.23 1037.02 1821.93 1079.89C1763.84 1097.5 1702.87 1116.41 1637.34 1137.34C1606.81 1090.33 1573.58 1042.05 1541.88 997.765V997.776Z" fill="#1A1A1A"/>
<path fill-rule="evenodd" clip-rule="evenodd" d="M1621.88 690.564C1676.03 688.397 1726.7 685.124 1775.58 682.533C1803.09 712.514 1830.01 741.752 1855.89 772.133C1808.47 776.431 1758.11 781.895 1704.54 789.714C1677.81 755.471 1651.13 722.311 1621.88 690.564Z" fill="#1A1A1A"/>
<path fill-rule="evenodd" clip-rule="evenodd" d="M1334.16 1676C1403.58 1639.25 1468.53 1604.49 1529.71 1570.99C1547.19 1605.29 1564.7 1640.27 1582.02 1676H1334.17H1334.16Z" fill="#1A1A1A"/>
<path fill-rule="evenodd" clip-rule="evenodd" d="M1571.26 1549.47C1650.96 1507.16 1721.18 1466.37 1789.89 1429.87C1825.93 1492.11 1862.85 1559.06 1899.59 1625.87C1877.1 1642.47 1854.21 1659.13 1830.74 1676H1633.12C1612.19 1632.76 1591.61 1590.73 1571.26 1549.47Z" fill="#1A1A1A"/>
<path fill-rule="evenodd" clip-rule="evenodd" d="M1821.67 1413.49C1883.87 1383.01 1941.3 1354.7 1994.05 1326.64C2028.04 1378.16 2064.25 1433.46 2096.95 1490.51C2045.56 1526.05 1990.28 1562.52 1929.5 1601.8C1894.38 1536 1857.72 1474.87 1821.67 1413.49Z" fill="#1A1A1A"/>
<path fill-rule="evenodd" clip-rule="evenodd" d="M2022.93 1318.82C2074.32 1292.59 2121.16 1269.65 2165.56 1247.74C2196.17 1291.16 2228.47 1336.1 2260.93 1381.8C2218.29 1410.79 2171.61 1442.75 2122.45 1476.37C2088.72 1419.66 2056.19 1369.49 2022.93 1318.81V1318.82Z" fill="#1A1A1A"/>
<path fill-rule="evenodd" clip-rule="evenodd" d="M2192.94 1231.76C2233.98 1212.87 2272.73 1194.45 2309.42 1176.13C2338.7 1213.59 2368.11 1253.12 2397.56 1293.73C2362.82 1317.74 2326.47 1340.68 2286.79 1363.58C2256.04 1320.15 2224.24 1275.71 2192.94 1231.77V1231.76Z" fill="#1A1A1A"/>
<path fill-rule="evenodd" clip-rule="evenodd" d="M2330.64 1165.4C2363.99 1146.58 2395.92 1132.7 2427.59 1118.95C2455.16 1153.97 2483.44 1189.75 2512.51 1225.92C2482.55 1242.7 2451.23 1262.17 2419.66 1283.8C2390.41 1243.78 2359.86 1203.66 2330.64 1165.4Z" fill="#1A1A1A"/>
<path fill-rule="evenodd" clip-rule="evenodd" d="M2441.46 1115.1C2469.6 1101.5 2497.39 1088.71 2524.44 1077.39C2548.4 1107.56 2573.74 1137.62 2598.75 1167.7C2574.19 1182.88 2548.18 1199.22 2521.81 1216.74C2494.67 1182.31 2467.27 1147.86 2441.47 1115.1H2441.46Z" fill="#1A1A1A"/>
<path fill-rule="evenodd" clip-rule="evenodd" d="M2620.25 1032.35C2642.6 1024.25 2662.12 1015.17 2681.51 1006.23C2702.38 1029.69 2724.07 1054.32 2744.05 1077.53C2726.44 1088.87 2709.31 1101.08 2688.3 1111.83C2666.26 1085.37 2643.49 1058.64 2620.25 1032.34V1032.35Z" fill="#1A1A1A"/>
<path fill-rule="evenodd" clip-rule="evenodd" d="M2691.82 1002.04C2710.65 993.137 2727.66 984.27 2744.39 977.711C2763.82 998.754 2781.8 1019.24 2801.9 1041.99C2786.58 1051.94 2770.81 1061.55 2754.5 1072.56C2733.14 1048.67 2713.07 1025.15 2691.82 1002.04Z" fill="#1A1A1A"/>
<path fill-rule="evenodd" clip-rule="evenodd" d="M2752.73 974.437C2767.99 967.266 2781.85 959.824 2796.22 953.606C2814.47 973.107 2832.61 992.242 2848.84 1011.55C2837 1020.27 2823.06 1028.62 2809.33 1037.58C2789.83 1016.04 2771.17 995.174 2752.74 974.437H2752.73Z" fill="#1A1A1A"/>
<path fill-rule="evenodd" clip-rule="evenodd" d="M2806.7 950.886C2820.62 944.645 2833.11 938.769 2845.21 932.034C2859.68 947.636 2876.85 965.971 2891.54 982.751C2881.06 990.323 2869.15 997.859 2857.11 1006.4C2840.84 987.544 2823.36 968.974 2806.7 950.886Z" fill="#1A1A1A"/>
<path fill-rule="evenodd" clip-rule="evenodd" d="M2851.89 928.63C2863.52 923.472 2875.1 918.374 2885.3 913.181C2899.49 928.206 2913.13 943.067 2927.23 957.751C2918.3 964.487 2907.99 970.704 2898.26 979.018C2882.91 961.708 2868 945.175 2851.89 928.642V928.63Z" fill="#1A1A1A"/>
<path fill-rule="evenodd" clip-rule="evenodd" d="M2888.28 910.307C2898.42 905.491 2907.2 900.11 2916.89 895.753C2929.16 908.306 2942.16 922.118 2955.25 935.684C2947.17 941.736 2939.35 948.566 2930.51 955.526C2916.76 940.418 2902.47 925.639 2888.28 910.307Z" fill="#1A1A1A"/>
<path fill-rule="evenodd" clip-rule="evenodd" d="M2921.07 891.514C2928.78 885.826 2936.43 880.48 2944.06 876.465C2956.63 889.63 2968 901.594 2979.46 913.793C2973.47 920.223 2966.79 926.193 2959.75 932.552C2946.65 918.515 2933.67 905.138 2921.07 891.502V891.514Z" fill="#1A1A1A"/>
<path fill-rule="evenodd" clip-rule="evenodd" d="M2948.49 873.591C2955.43 869.823 2962.01 865.867 2967.62 860.921C2978.27 872.167 2988 882.341 2999.43 894.517C2994.5 899.992 2989.53 905.338 2983.89 910.861C2972.45 898.991 2961.09 887.31 2948.49 873.591Z" fill="#1A1A1A"/>
<path fill-rule="evenodd" clip-rule="evenodd" d="M1886.38 832.236C1931.71 826.019 1974.9 820.708 2016.83 814.161C2042.98 845.472 2069.32 875.664 2097.05 907.093C2057.09 915.501 2014.56 923.438 1969.26 934.601C1941.43 899.58 1913.54 865.867 1886.37 832.236H1886.38Z" fill="#1A1A1A"/>
<path fill-rule="evenodd" clip-rule="evenodd" d="M2727.55 671.029C2739.89 671.123 2751.58 671.147 2762.64 671.335C2775.59 684.288 2788.94 696.923 2801.43 709.5C2790.64 709.311 2781.28 711.113 2769.47 711.537C2755.83 697.936 2741.96 684.371 2727.54 671.017L2727.55 671.029Z" fill="#1A1A1A"/>
<path fill-rule="evenodd" clip-rule="evenodd" d="M2729.5 630.792C2740.68 632.146 2751.28 633.17 2761.56 634.006C2774.13 645.782 2786.14 657.098 2797.91 668.214C2788.45 668.273 2778.69 668.156 2768.62 667.755C2756.01 655.768 2742.59 643.121 2729.5 630.792Z" fill="#1A1A1A"/>
<path fill-rule="evenodd" clip-rule="evenodd" d="M581.396 1676C614.45 1662.09 646.744 1648.4 678.244 1634.87C683.534 1648.37 688.728 1662.09 693.852 1676H581.384H581.396Z" fill="#1A1A1A"/>
<path fill-rule="evenodd" clip-rule="evenodd" d="M1910.7 536.741C1949.79 538.778 1986.92 540.568 2022.27 542.24C2044.07 563.813 2065.64 585.692 2087.89 606.581C2052.52 606.793 2017.13 606.299 1979.06 605.781C1956.98 582.418 1933.61 559.573 1910.72 536.741H1910.7Z" fill="#1A1A1A"/>
<path fill-rule="evenodd" clip-rule="evenodd" d="M1151.66 1436.17C1251.14 1395.59 1342.37 1359.71 1429.18 1326.54C1463 1388.9 1499.21 1455.92 1532.23 1527.71C1447.01 1572.15 1357.74 1617.28 1257.93 1665.56C1224.19 1587.54 1187.75 1510.25 1151.67 1436.17H1151.66Z" fill="#1A1A1A"/>
<path fill-rule="evenodd" clip-rule="evenodd" d="M1714.9 1215.07C1777.84 1191.73 1837.75 1170.97 1893.31 1150.54C1925.66 1196.71 1958.63 1245.66 1990.7 1295.16C1937.6 1322.26 1879.12 1349.79 1819.36 1377.64C1784.54 1323.12 1749.79 1267 1714.91 1215.08L1714.9 1215.07Z" fill="#1A1A1A"/>
<path fill-rule="evenodd" clip-rule="evenodd" d="M2096.85 1084.15C2140.35 1069.47 2180.03 1056.05 2217.81 1042.24C2245.21 1075.9 2273.88 1112.46 2301.38 1150.05C2265.4 1167.38 2226.01 1185.77 2186.24 1204.78C2157.49 1163.02 2126.53 1122.1 2096.84 1084.15H2096.85Z" fill="#1A1A1A"/>
<path fill-rule="evenodd" clip-rule="evenodd" d="M2239.4 1035.56C2275.42 1023.51 2309.16 1012.85 2341.5 1003.11C2368.59 1035.01 2394.88 1067.39 2421.97 1099.6C2391.21 1112.71 2359.86 1125.87 2325.95 1142.25C2296.58 1104.64 2268.43 1068.42 2239.4 1035.56Z" fill="#1A1A1A"/>
<path fill-rule="evenodd" clip-rule="evenodd" d="M2355.44 999.567C2385.42 989.922 2414.51 980.431 2443.06 970.787C2466.84 998.907 2490.63 1026.54 2514.94 1055.22C2488.65 1066.96 2460.88 1080.13 2432.63 1092.83C2406.19 1061.02 2380.07 1029.59 2355.45 999.555L2355.44 999.567Z" fill="#1A1A1A"/>
<path fill-rule="evenodd" clip-rule="evenodd" d="M2461.92 965.076C2487.5 957.386 2512.56 949.991 2535.45 942.631C2559.36 969.209 2582.06 993.937 2604.45 1020.51C2582.98 1028.96 2559.88 1038.53 2534.58 1050.59C2510.72 1020.34 2485.58 991.994 2461.92 965.076Z" fill="#1A1A1A"/>
<path fill-rule="evenodd" clip-rule="evenodd" d="M2546.67 940.253C2569.93 933.859 2590.76 926.534 2611.71 920.529C2632.23 942.631 2653.15 966.395 2672.64 989.416C2653.73 997.67 2634.28 1006.84 2611.7 1014.49C2590.73 990.593 2568.47 964.722 2546.68 940.253H2546.67Z" fill="#1A1A1A"/>
<path fill-rule="evenodd" clip-rule="evenodd" d="M2622.85 916.949C2642.9 911.568 2661.77 906.904 2679.58 901.711C2698.38 922.166 2717.72 942.29 2735.57 962.32C2719.26 968.502 2701.39 975.791 2683.65 984.541C2663.81 961.355 2643.38 939.299 2622.85 916.949Z" fill="#1A1A1A"/>
<path fill-rule="evenodd" clip-rule="evenodd" d="M2687.79 899.145C2704.77 894.482 2721.02 889.536 2736.57 884.119C2753.94 902.783 2771.48 921.389 2787.86 939.535C2774.18 946.082 2759.07 952.582 2743.55 958.67C2724.99 939.076 2706.65 918.928 2687.78 899.145H2687.79Z" fill="#1A1A1A"/>
<path fill-rule="evenodd" clip-rule="evenodd" d="M2747.23 882.247C2762.27 877.701 2775.62 872.579 2788.53 868.528C2804.5 884.508 2820.23 900.887 2835.78 916.773C2824.33 923.85 2811.22 930.244 2797.02 935.967C2780.28 917.668 2764.01 900.028 2747.22 882.247H2747.23Z" fill="#1A1A1A"/>
<path fill-rule="evenodd" clip-rule="evenodd" d="M2798.01 867.751C2810.51 863.453 2822.94 859.838 2834.99 856.529C2848.17 870.283 2862.71 885.308 2876.07 899.922C2865.25 904.373 2854.68 909.436 2843.08 914.382C2828.49 899.109 2813.36 883.754 2798.01 867.739V867.751Z" fill="#1A1A1A"/>
<path fill-rule="evenodd" clip-rule="evenodd" d="M2838.28 854.021C2848.68 849.781 2859 845.86 2869.6 842.375C2882.19 855.386 2895.8 869.941 2908.23 883.083C2898.86 887.781 2889.77 892.786 2879.99 897.614C2866.3 883.153 2852.06 868.928 2838.26 854.032L2838.28 854.021Z" fill="#1A1A1A"/>
<path fill-rule="evenodd" clip-rule="evenodd" d="M2874.43 839.443C2884 835.887 2892.59 832.742 2901.46 830.046C2913.76 842.186 2925.8 854.056 2937.62 866.703C2929.69 870.507 2922.05 875.111 2914.04 880.151C2900.96 866.774 2887.97 852.926 2874.44 839.443H2874.43Z" fill="#1A1A1A"/>
<path fill-rule="evenodd" clip-rule="evenodd" d="M2177.68 797.686C2211.65 794.224 2244.35 791.599 2275.7 788.172C2298.89 813.077 2322.54 838.583 2346.13 863.735C2315.87 868.799 2285.67 874.863 2251.75 881.717C2227.01 853.161 2202.53 824.758 2177.68 797.686Z" fill="#1A1A1A"/>
<path fill-rule="evenodd" clip-rule="evenodd" d="M2289.95 785.911C2319.52 782.202 2348.41 779.693 2374.36 776.243C2397.08 799.512 2419.55 823.31 2440.65 846.614C2414.96 851.583 2388.46 856.599 2359.83 861.168C2337.1 836.758 2313.15 810.734 2289.95 785.911Z" fill="#1A1A1A"/>
<path fill-rule="evenodd" clip-rule="evenodd" d="M2387.23 774.819C2414.2 772.228 2438.39 769.932 2461.85 767.683C2482.16 788.266 2503.47 810.334 2523.75 831.471C2501.2 835.71 2477.87 839.996 2453.31 845.189C2431.93 821.144 2409.39 797.404 2387.23 774.819Z" fill="#1A1A1A"/>
<path fill-rule="evenodd" clip-rule="evenodd" d="M2472.91 766.411C2495.87 764.22 2517.67 762.89 2538.48 760.97C2557.54 780.164 2577.81 801.396 2596.21 820.284C2576.39 823.616 2555.61 826.089 2534.32 829.433C2514.88 809.191 2493.22 787.124 2472.9 766.411H2472.91Z" fill="#1A1A1A"/>
<path fill-rule="evenodd" clip-rule="evenodd" d="M2548.67 760.229C2568.76 758.003 2587.53 755.283 2606.38 754.541C2624.09 772.122 2642.22 790.421 2660.12 809.333C2643.23 812.241 2625.25 815.574 2605.86 819.165C2587.2 799.288 2567.42 779.387 2548.67 760.229Z" fill="#1A1A1A"/>
<path fill-rule="evenodd" clip-rule="evenodd" d="M2615.11 754.235C2632.66 752.562 2648.85 751.02 2665.28 749.937C2682.56 766.599 2699.92 783.744 2714.93 799.665C2700.54 802.538 2685.12 805.505 2668.09 807.637C2650.76 789.184 2633.52 771.757 2615.12 754.235H2615.11Z" fill="#1A1A1A"/>
<path fill-rule="evenodd" clip-rule="evenodd" d="M2672.67 749.383C2688.4 747.782 2703.74 746.757 2717.47 745.273C2733.35 760.699 2748.98 776.608 2764.44 791.975C2751.5 795.001 2736.66 796.544 2722.73 798.593C2706.43 782.496 2690.29 766.045 2672.67 749.395V749.383Z" fill="#1A1A1A"/>
<path fill-rule="evenodd" clip-rule="evenodd" d="M2725.38 745.521C2739.34 744.284 2752.34 743.048 2764.66 741.906C2778.16 755.848 2792.38 769.873 2806.71 783.532C2794.93 785.511 2782.44 788.513 2770.55 791.163C2755.71 775.772 2740.94 761.159 2725.38 745.521Z" fill="#1A1A1A"/>
<path fill-rule="evenodd" clip-rule="evenodd" d="M2772.22 741.093C2784.15 740.257 2794.81 738.868 2805.74 738.338C2818.75 750.667 2831.82 763.49 2844.95 776.502C2834.86 778.363 2825.38 780.612 2814.63 782.378C2800.61 768.683 2786.06 754.682 2772.22 741.082V741.093Z" fill="#1A1A1A"/>
<path fill-rule="evenodd" clip-rule="evenodd" d="M2812 737.231C2822.27 735.994 2831.28 734.887 2840.87 734.051C2853.31 746.168 2865.82 757.909 2878.08 770.52C2869.66 772.557 2860.6 774.041 2851.2 776.42C2838.36 763.313 2824.99 750.113 2811.99 737.231H2812Z" fill="#1A1A1A"/>
<path fill-rule="evenodd" clip-rule="evenodd" d="M2844.9 733.828C2853.55 732.403 2860.95 730.578 2868.64 729.129C2879.88 740.351 2891.48 751.727 2901.93 762.266C2895.15 764.279 2887.41 766.222 2880.27 768.601C2868.63 756.979 2856.42 745.179 2844.9 733.828Z" fill="#1A1A1A"/>
<path fill-rule="evenodd" clip-rule="evenodd" d="M2873.54 728.14C2880.27 726.81 2887.6 726.409 2893.7 724.772C2904.35 735.253 2915.07 745.639 2924.9 755.648C2919.41 757.497 2913.9 759.51 2907.44 761.241C2896.7 750.738 2885.08 739.857 2873.53 728.14H2873.54Z" fill="#1A1A1A"/>
<path fill-rule="evenodd" clip-rule="evenodd" d="M2950.13 734.452C2952.2 732.686 2953.95 729.942 2955.43 727.987C2962.51 735.465 2969.59 742.047 2975.5 748.665C2975.6 751.915 2974.47 754.788 2973.03 757.568C2965.27 749.902 2958.15 742.577 2950.14 734.452H2950.13Z" fill="#1A1A1A"/>
<path fill-rule="evenodd" clip-rule="evenodd" d="M2812.04 673.407C2795.11 669.828 2778.47 666.236 2759.36 662.468C2754.87 660.184 2750.63 659.135 2745.22 657.122C2765.5 662.068 2783.96 665.989 2801.8 670.193C2805.97 673.007 2808.76 671.712 2812.04 673.407Z" fill="#1A1A1A"/>
<path fill-rule="evenodd" clip-rule="evenodd" d="M2696.74 654.531C2672.76 652.459 2648.5 652.518 2622.08 651.317C2617.13 650.857 2611.53 650.445 2605.74 648.691C2633.33 651.317 2658.6 650.728 2682.98 652.188C2688.72 654.319 2693.1 653.554 2696.74 654.543V654.531Z" fill="#1A1A1A"/>
<path fill-rule="evenodd" clip-rule="evenodd" d="M2216.05 704.283C2246.63 702.34 2276.98 701.257 2304.39 699.49C2326.36 721.428 2348.06 743.743 2369.24 766.458C2342.14 769.178 2313.26 771.804 2284.5 775.136C2261.83 750.69 2238.37 726.433 2216.06 704.271L2216.05 704.283Z" fill="#1A1A1A"/>
<path fill-rule="evenodd" clip-rule="evenodd" d="M2317.72 698.725C2345.1 698.289 2371.08 697.736 2395.48 696.688C2415.27 716.965 2437.05 738.196 2456.22 758.438C2433.14 760.699 2408.07 762.454 2382.18 764.562C2361.21 742.459 2339.12 720.121 2317.72 698.736V698.725Z" fill="#1A1A1A"/>
<path fill-rule="evenodd" clip-rule="evenodd" d="M2407.23 696.594C2431.4 696.005 2454.11 696.04 2476.52 695.51C2495.54 713.586 2514.52 732.815 2532.95 752.622C2511.91 753.764 2490.14 755.283 2467.45 757.932C2448.57 737.784 2427.1 716.459 2407.22 696.582L2407.23 696.594Z" fill="#1A1A1A"/>
<path fill-rule="evenodd" clip-rule="evenodd" d="M2486.95 694.863C2508.29 694.427 2528.18 694.804 2547.48 694.18C2565.74 711.643 2583.49 729.047 2600.75 746.322C2582.56 747.122 2563.54 749.407 2543.17 751.609C2524.59 732.697 2505.63 713.162 2486.95 694.863Z" fill="#1A1A1A"/>
<path fill-rule="evenodd" clip-rule="evenodd" d="M2556.79 693.744C2575.92 694.109 2592.57 693.214 2610.02 693.379C2627.22 709.947 2643.94 725.891 2660.14 742.118C2644.05 743.566 2627.25 744.932 2609.46 746.039C2592.22 728.458 2574.68 711.831 2556.79 693.744Z" fill="#1A1A1A"/>
<path fill-rule="evenodd" clip-rule="evenodd" d="M2618 692.79C2635.08 692.602 2650.56 692.543 2666.01 691.989C2681.86 707.25 2697.18 722.335 2712.57 737.725C2698.77 740.387 2683.79 741.058 2668.11 742.141C2651.29 725.479 2635.51 709.382 2617.99 692.79H2618Z" fill="#1A1A1A"/>
<path fill-rule="evenodd" clip-rule="evenodd" d="M2673.22 692.166C2687.65 692.166 2702.3 692.814 2714.81 692.472C2729.27 705.979 2744.1 720.439 2758.75 734.287C2746.16 735.029 2733.21 736.077 2719.54 737.69C2704.75 722.394 2688.77 707.404 2673.22 692.166Z" fill="#1A1A1A"/>
<path fill-rule="evenodd" clip-rule="evenodd" d="M2139.41 622.914C2171.58 623.256 2202.63 623.715 2231.64 624.433C2252.81 645.606 2273.92 665.965 2294.77 686.961C2266.24 687.915 2236.22 689.34 2206.08 690.635C2183.49 667.861 2160.83 644.769 2139.41 622.926V622.914Z" fill="#1A1A1A"/>
<path fill-rule="evenodd" clip-rule="evenodd" d="M2245.19 625.387C2273.51 625.481 2300.92 626.718 2326.41 627.554C2346.46 646.995 2366.64 666.436 2386.08 685.748C2361.28 685.501 2334.7 685.901 2307.93 687.138C2287.45 665.659 2266.53 645.535 2245.19 625.387Z" fill="#1A1A1A"/>
<path fill-rule="evenodd" clip-rule="evenodd" d="M2339.31 627.765C2364.42 628.26 2388.73 629.249 2411.69 630.274C2429.99 647.831 2448.62 665.942 2467.28 684.983C2445.28 685.136 2422.21 685.572 2398.42 685.937C2379.03 666.342 2358.84 646.536 2339.32 627.765H2339.31Z" fill="#1A1A1A"/>
<path fill-rule="evenodd" clip-rule="evenodd" d="M2422.23 630.392C2445.07 631.687 2464.8 632.087 2485.63 633.265C2504.14 650.422 2520.93 666.896 2538.71 684.041C2518.85 684.135 2498.66 683.923 2477.02 684.347C2459.54 666.119 2440.87 648.008 2422.23 630.392Z" fill="#1A1A1A"/>
<path fill-rule="evenodd" clip-rule="evenodd" d="M2496.32 634.16C2515.3 634.525 2533.88 635.055 2552.37 636.138C2569.5 652.612 2585.89 668.25 2601.78 683.64C2585.21 684.477 2567.39 684.594 2547.98 684.17C2530.82 666.955 2513.65 650.822 2496.32 634.16Z" fill="#1A1A1A"/>
<path fill-rule="evenodd" clip-rule="evenodd" d="M2561.46 636.42C2579.54 637.657 2595.45 638.34 2610.71 638.952C2626.88 653.813 2643.41 668.803 2658.22 683.334C2643.11 683.581 2627.32 684.076 2609.99 683.64C2594.08 668.309 2577.98 652.706 2561.46 636.42Z" fill="#1A1A1A"/>
<path fill-rule="evenodd" clip-rule="evenodd" d="M2620.22 640.742C2636.3 642.073 2650.54 642.815 2665.04 643.674C2679.83 657.64 2695.29 672.042 2709.59 686.455C2695.94 685.407 2681.57 685.218 2666.58 684.606C2651.72 670.664 2636.94 656.733 2620.22 640.754V640.742Z" fill="#1A1A1A"/>
<path fill-rule="evenodd" clip-rule="evenodd" d="M2176.99 557.477C2206.44 559.149 2234.31 560.292 2261.26 562.482C2281.23 581.488 2300.51 599.881 2320.01 619.687C2293.42 617.898 2266.83 617.709 2238.01 616.873C2218.43 597.031 2197.99 577.225 2177 557.477H2176.99Z" fill="#1A1A1A"/>
<path fill-rule="evenodd" clip-rule="evenodd" d="M2274.74 564.378C2301.12 565.579 2325.36 567.84 2349.82 570.407C2368.4 587.469 2386.41 604.862 2404.84 622.572C2381.08 620.594 2357.95 620.535 2332.27 619.734C2312.91 600.846 2293.46 581.629 2274.74 564.378Z" fill="#1A1A1A"/>
<path fill-rule="evenodd" clip-rule="evenodd" d="M2361.11 571.361C2384.33 573.151 2405.85 575.435 2427.65 577.79C2445.3 593.734 2462.34 610.338 2480.1 626.988C2459.08 624.857 2438.45 624.421 2415.37 622.726C2398.06 606.04 2379.67 588.824 2361.11 571.361Z" fill="#1A1A1A"/>
<path fill-rule="evenodd" clip-rule="evenodd" d="M2438.27 578.556C2458.81 580.381 2478.15 581.488 2497.35 583.313C2513.93 598.762 2530.03 614.035 2546.48 629.697C2528 628.743 2509.77 627.93 2489.31 627.012C2471.83 610.573 2455.63 594.594 2438.27 578.556Z" fill="#1A1A1A"/>
<path fill-rule="evenodd" clip-rule="evenodd" d="M2506.9 584.467C2524.24 585.609 2541.51 587.246 2559.27 589.754C2574.87 603.967 2590.49 618.781 2605.66 632.958C2589.5 632.181 2572.76 630.58 2555.54 630.144C2538.75 614.471 2522.61 599.61 2506.9 584.467Z" fill="#1A1A1A"/>
<path fill-rule="evenodd" clip-rule="evenodd" d="M2612.35 600.811C2627.6 602.695 2642.21 604.426 2655.62 605.604C2669.41 618.239 2684.11 631.628 2698.3 644.922C2684.81 643.721 2670.92 643.403 2657.07 642.544C2642.99 628.755 2627.78 614.824 2612.35 600.823V600.811Z" fill="#1A1A1A"/>
<path fill-rule="evenodd" clip-rule="evenodd" d="M2663.85 606.311C2676.92 607.453 2689.39 608.289 2701.49 609.808C2714.15 621.984 2726.93 633.359 2739.11 645.252C2728.41 645.099 2716.19 644.228 2704.53 643.863C2691.51 631.746 2677.39 618.545 2663.85 606.311Z" fill="#1A1A1A"/>
<path fill-rule="evenodd" clip-rule="evenodd" d="M2208.85 503.581C2235.34 506.701 2260.89 509.704 2286.64 512.766C2304.88 529.699 2322.68 546.114 2341.42 563.33C2316.16 560.056 2292.45 558.631 2265.42 555.723C2246.95 537.894 2227.76 521.103 2208.85 503.581Z" fill="#1A1A1A"/>
<path fill-rule="evenodd" clip-rule="evenodd" d="M2298.47 514.002C2322.06 516.569 2345.76 519.902 2368.28 522.716C2384.99 538.448 2402.4 554.333 2419.85 570.619C2397.79 568.181 2376.49 566.474 2352.69 564.496C2333.98 547.009 2316.12 530.747 2298.47 513.99V514.002Z" fill="#1A1A1A"/>
<path fill-rule="evenodd" clip-rule="evenodd" d="M2379.06 523.976C2400.01 526.354 2420.55 529.169 2441.61 532.325C2457.66 547.35 2472.99 561.104 2489.75 576.495C2470.57 574.67 2450.99 573.127 2430.39 571.761C2413.28 555.381 2395.58 539.119 2379.06 523.976Z" fill="#1A1A1A"/>
<path fill-rule="evenodd" clip-rule="evenodd" d="M2450.78 533.75C2469.38 536.587 2487.96 539.037 2505.61 541.415C2520.94 555.452 2536.98 569.535 2552.22 583.36C2534.71 581.57 2517.48 579.686 2499.31 577.637C2482.51 562.458 2466.6 548.092 2450.78 533.75Z" fill="#1A1A1A"/>
<path fill-rule="evenodd" clip-rule="evenodd" d="M2562.49 553.497C2578.49 556.064 2593.3 557.831 2607.21 559.621C2621.59 572.75 2636.09 585.68 2649.72 598.904C2636.03 597.479 2622.03 596.066 2606.49 594.088C2592.03 580.675 2577.63 567.51 2562.49 553.509V553.497Z" fill="#1A1A1A"/>
<path fill-rule="evenodd" clip-rule="evenodd" d="M2617.53 563.565C2631.69 565.449 2644.31 567.428 2657.18 569.806C2670.56 581.7 2683.68 593.475 2697.74 606.146C2685.66 604.568 2672.61 603.579 2659.55 602.495C2645.87 589.448 2631.98 576.53 2617.52 563.553L2617.53 563.565Z" fill="#1A1A1A"/>
<path fill-rule="evenodd" clip-rule="evenodd" d="M2152 441.017C2179.93 445.386 2206.31 449.284 2231.67 453.653C2249.88 468.772 2267.16 484.316 2285.86 501.343C2260.3 497.446 2234.49 494.667 2208.13 491.264C2189.33 473.93 2170.77 457.48 2152.02 441.006L2152 441.017Z" fill="#1A1A1A"/>
<path fill-rule="evenodd" clip-rule="evenodd" d="M2243.71 454.912C2268.67 459.199 2292.51 462.543 2315.9 466.582C2332.1 481.572 2349.07 496.032 2366.27 511.741C2343.58 508.467 2320.15 505.594 2296.47 502.003C2279.12 486.271 2261.78 470.939 2243.71 454.912Z" fill="#1A1A1A"/>
<path fill-rule="evenodd" clip-rule="evenodd" d="M2179.05 399.202C2204.44 403.665 2228.77 408.564 2252.57 412.992C2269.68 428.1 2286.41 442.595 2303.17 457.138C2280.72 453.299 2256.35 449.59 2230.78 445.256C2213.89 430.266 2196.27 414.77 2179.03 399.202H2179.05Z" fill="#1A1A1A"/>
<path fill-rule="evenodd" clip-rule="evenodd" d="M1902.85 415.064C1939.38 420.092 1973.39 424.767 2005.75 428.123C2027.27 446.622 2046.98 465.605 2066.05 483.409C2034.65 480.783 2001.2 477.015 1965.74 473.212C1945.57 454.006 1924.59 434.541 1902.86 415.076L1902.85 415.064Z" fill="#1A1A1A"/>
<path fill-rule="evenodd" clip-rule="evenodd" d="M2888.6 774.006C2896.36 771.874 2903.46 769.613 2910.24 767.788C2920.77 778.174 2931.66 788.772 2941.98 800.43C2936.74 803.15 2930.56 806.424 2924.04 809.391C2912.77 798.051 2900.65 785.652 2888.6 774.006Z" fill="#1A1A1A"/>
<path fill-rule="evenodd" clip-rule="evenodd" d="M2859.54 781.33C2868.64 779.199 2877.07 776.879 2885.17 774.783C2897.54 787.265 2909.35 799.265 2920.61 810.663C2914.06 814.243 2906.85 817.587 2898.98 821.014C2886.17 807.755 2872.81 794.189 2859.54 781.33Z" fill="#1A1A1A"/>
<path fill-rule="evenodd" clip-rule="evenodd" d="M2825.78 788.972C2836.22 787.124 2845.7 784.556 2854.85 781.954C2868.72 795.955 2882.08 809.214 2894.55 822.168C2886.02 824.923 2877.43 828.161 2867.24 830.728C2853.54 816.763 2839.3 802.726 2825.77 788.972H2825.78Z" fill="#1A1A1A"/>
<path fill-rule="evenodd" clip-rule="evenodd" d="M2782.67 797.557C2794.87 794.931 2806.72 792.152 2818.48 790.292C2832.32 803.986 2846.83 819.342 2860.84 833.837C2850.25 836.711 2839.92 840.914 2829.23 845.083C2814.02 828.762 2797.97 813.254 2782.67 797.545V797.557Z" fill="#1A1A1A"/>
<path fill-rule="evenodd" clip-rule="evenodd" d="M2735.83 805.282C2750.1 803.15 2764.3 801.019 2776.25 798.299C2791.86 813.748 2807.91 829.457 2823.42 845.648C2811.36 849.57 2798.63 852.973 2785.49 856.682C2769.76 839.866 2753.21 822.874 2735.83 805.282Z" fill="#1A1A1A"/>
<path fill-rule="evenodd" clip-rule="evenodd" d="M2682.41 815.456C2698.84 812.924 2713.93 810.074 2728.32 807.048C2746.3 825.253 2763.14 842.74 2778.87 859.308C2765.66 863.076 2751.36 867.774 2736.67 872.19C2718.23 852.749 2701.18 834.885 2682.41 815.444V815.456Z" fill="#1A1A1A"/>
<path fill-rule="evenodd" clip-rule="evenodd" d="M2622.11 828.091C2640.79 824.911 2658.14 821.32 2675.06 817.893C2693.16 837.087 2711.16 855.563 2729.29 874.663C2713.77 879.703 2697.2 884.613 2680.23 889.559C2661.04 868.693 2641.06 847.779 2622.11 828.091Z" fill="#1A1A1A"/>
<path fill-rule="evenodd" clip-rule="evenodd" d="M2545.81 839.125C2567.26 834.862 2587.79 831.671 2606.88 828.892C2626.47 848.368 2646.35 869.682 2665.82 890.489C2647.76 894.787 2628.26 899.415 2608.81 905.821C2587.39 882.364 2567.01 860.58 2545.8 839.125H2545.81Z" fill="#1A1A1A"/>
<path fill-rule="evenodd" clip-rule="evenodd" d="M2467.36 852.972C2491.52 848.274 2515.31 842.963 2536.18 838.854C2557.58 861.262 2579.23 883.353 2599.68 906.257C2579.08 912.533 2557.28 919.386 2533.49 924.992C2511.69 900.816 2489.71 877.36 2467.36 852.984V852.972Z" fill="#1A1A1A"/>
<path fill-rule="evenodd" clip-rule="evenodd" d="M2374.1 869.576C2402.08 864.724 2429.83 860.521 2453.8 853.632C2476.37 878.455 2499.44 903.489 2520.85 927.865C2497.06 934.73 2472.07 941.713 2445.61 948.354C2421.41 921.282 2398.25 895.659 2374.09 869.576H2374.1Z" fill="#1A1A1A"/>
<path fill-rule="evenodd" clip-rule="evenodd" d="M2268.45 891.856C2301.32 885.085 2331.55 879.032 2359.97 872.603C2384.37 899.333 2409.01 926.04 2433.09 953.889C2403.44 962.073 2376.09 972.282 2344.71 980.278C2318.78 950.545 2293.15 920.941 2268.45 891.856Z" fill="#1A1A1A"/>
<path fill-rule="evenodd" clip-rule="evenodd" d="M2146.33 919.728C2184.77 912.215 2218.85 905.115 2253.21 897.661C2278.85 927.017 2304.43 956.903 2330.05 986.118C2297.97 996.693 2263.99 1007.04 2228.34 1017.64C2200.13 983.363 2173.33 951.133 2146.33 919.728Z" fill="#1A1A1A"/>
<path fill-rule="evenodd" clip-rule="evenodd" d="M875.227 750.031C899.433 730.743 923.129 711.278 944.786 693.508C979.772 713.256 1014.6 731.649 1049.78 752.504C1030.15 772.934 1010.71 794.354 987.22 816.268C949.292 793.918 911.388 771.698 875.239 750.031H875.227Z" fill="#1A1A1A"/>
<path fill-rule="evenodd" clip-rule="evenodd" d="M2062.59 710.442C2072.22 700.774 2081.63 691.777 2091.41 684.076C2105.04 693.591 2119.24 703.73 2133.25 713.374C2124.55 722.523 2116.33 732.356 2107.49 743.413C2092.41 732.167 2077.36 721.004 2062.58 710.442H2062.59Z" fill="#1A1A1A"/>
<path fill-rule="evenodd" clip-rule="evenodd" d="M2443.7 353.278C2447.45 347.579 2450.89 341.644 2454.05 335.697C2466.32 345.812 2479.41 356.763 2492.27 367.432C2490.26 374.274 2487.43 380.526 2484.22 387.227C2470.78 375.958 2457.1 364.5 2443.71 353.278H2443.7Z" fill="#1A1A1A"/>
<path fill-rule="evenodd" clip-rule="evenodd" d="M452.872 1342C483.127 1318.39 511.662 1295.77 539.379 1275.86C575.468 1286.92 610.882 1300.03 648.039 1312.54C621.093 1334.3 594.575 1357.81 567.32 1383.15C528.562 1368.62 488.915 1355.53 452.86 1341.99L452.872 1342Z" fill="#1A1A1A"/>
<path fill-rule="evenodd" clip-rule="evenodd" d="M2357.33 429.866C2360.31 426.604 2362.66 423.425 2364.99 420.363C2372.96 426.133 2380.98 431.797 2388.73 437.449C2386.94 440.947 2385.09 445.056 2383.01 448.495C2374.44 442.313 2366.18 436.178 2357.33 429.854V429.866Z" fill="#1A1A1A"/>
<path fill-rule="evenodd" clip-rule="evenodd" d="M2082.71 280.634C2089.9 277.585 2096.7 274.888 2103.44 272.403C2113.6 279.292 2123.76 286.416 2134.14 293.929C2128.48 297.332 2122.25 300.358 2115.17 304.268C2104.59 296.037 2093.64 288.347 2082.71 280.646V280.634Z" fill="#1A1A1A"/>
<path fill-rule="evenodd" clip-rule="evenodd" d="M554.129 560.08C582.616 548.398 609.099 538.201 634.266 528.592C666.81 542.039 697.622 554.922 727.105 568.581C704.37 579.898 680.425 591.485 653.633 605.733C619.239 589.754 585.818 573.904 554.129 560.08Z" fill="#1A1A1A"/>
<path fill-rule="evenodd" clip-rule="evenodd" d="M2199.21 262.43C2203.55 260.392 2206.8 257.719 2210.24 255.706C2218.51 261.099 2226.4 267.187 2234.37 273.063C2231.45 275.642 2228.76 278.692 2225.24 281.047C2217.3 275.006 2208.27 268.612 2199.21 262.43Z" fill="#1A1A1A"/>
<path fill-rule="evenodd" clip-rule="evenodd" d="M2380.31 217.942C2382.61 216.269 2385.12 214.986 2387.39 213.443C2393.35 218.048 2399.89 222.805 2405.62 227.197C2403.64 228.987 2401.92 230.8 2400.15 232.873C2393.61 227.963 2386.83 222.958 2380.31 217.942Z" fill="#1A1A1A"/>
<path fill-rule="evenodd" clip-rule="evenodd" d="M2817.57 671.37C2818.54 668.897 2819.83 666.425 2820.49 664.046C2825.26 667.296 2829.7 671.005 2834.47 674.397C2834.1 677.27 2833.44 679.99 2832.78 682.71C2827.4 678.907 2822.62 675.138 2817.57 671.37Z" fill="#1A1A1A"/>
<path fill-rule="evenodd" clip-rule="evenodd" d="M430.988 943.409C451.268 933.741 467.682 924.615 484.998 915.877C510.425 923.049 534.774 929.537 559.039 936.555C544.155 945.516 527.302 955.961 509.465 965.853C482.887 958.646 456.854 950.804 430.988 943.409Z" fill="#1A1A1A"/>
<path fill-rule="evenodd" clip-rule="evenodd" d="M1923.43 233.862C1930.54 231.766 1937.82 230.329 1943.97 228.186C1953.87 234.627 1964.33 241.316 1973.7 247.522C1967.74 250.136 1962.15 252.361 1955.56 254.811C1945.7 248.063 1934.17 240.621 1923.43 233.862Z" fill="#1A1A1A"/>
<path fill-rule="evenodd" clip-rule="evenodd" d="M2185.65 74.6333C2190.17 73.7973 2194.69 73.079 2199.12 72.8552C2206.57 77.5654 2213.67 82.9469 2220.79 88.1045C2216.57 88.8346 2212.33 89.6354 2208.07 90.5656C2200.45 85.0076 2193.05 79.7204 2185.65 74.6333Z" fill="#1A1A1A"/>
<path fill-rule="evenodd" clip-rule="evenodd" d="M2298.16 269.695C2302.26 268.4 2306.3 267.481 2310.09 266.327C2316.46 270.896 2323.67 275.912 2330.36 280.434C2326.55 281.777 2323.04 283.025 2319.21 284.391C2312 279.398 2305.34 274.7 2298.14 269.695H2298.16Z" fill="#1A1A1A"/>
<path fill-rule="evenodd" clip-rule="evenodd" d="M2990.3 797.439C2991.46 795.555 2992.33 794.072 2993.5 792.188C2997.26 794.755 3001.01 797.345 3004.46 799.759C3003.62 801.702 3003.07 803.527 3001.9 805.105C2998.13 802.668 2994.05 800.042 2990.3 797.439Z" fill="#1A1A1A"/>
<path fill-rule="evenodd" clip-rule="evenodd" d="M2394.85 374.756C2398.95 373.414 2402.79 371.871 2406.56 370.882C2412.56 374.945 2419.16 379.302 2425.49 383.352C2421.69 384.695 2417.88 386.108 2414.33 387.709C2408.03 383.435 2401.43 379.137 2394.85 374.756Z" fill="#1A1A1A"/>
<path fill-rule="evenodd" clip-rule="evenodd" d="M1756.43 430.949C1765.34 428.629 1773.88 426.263 1782.08 424.072C1792.89 429.878 1803.41 435.4 1814.8 441.477C1806.37 443.396 1798.09 446.022 1789.83 448.459C1779.08 442.477 1767.32 436.543 1756.43 430.949Z" fill="#1A1A1A"/>
<path fill-rule="evenodd" clip-rule="evenodd" d="M3019.06 756.731C3020.16 754.812 3021.6 753.151 3022.71 751.667C3026.4 754.011 3029.8 756.46 3033.22 759.204C3032.12 760.841 3030.99 762.548 3029.89 764.456C3026.16 761.83 3022.45 759.204 3019.06 756.731Z" fill="#1A1A1A"/>
<path fill-rule="evenodd" clip-rule="evenodd" d="M2494.21 466.712C2498.02 465.381 2501.86 463.626 2505.36 462.225C2511.25 466.146 2516.57 469.738 2522.19 473.565C2518.99 475.049 2515.76 476.721 2512.23 478.511C2506.32 474.436 2500.39 470.88 2494.21 466.7V466.712Z" fill="#1A1A1A"/>
<path fill-rule="evenodd" clip-rule="evenodd" d="M2445.89 310.839C2449.23 309.979 2452.49 309.649 2455.8 309.037C2460.65 312.334 2465.73 316.02 2470.62 319.117C2467.89 319.706 2464.57 320.554 2461.8 321.496C2456.41 317.786 2451.3 314.207 2445.89 310.851V310.839Z" fill="#1A1A1A"/>
<path fill-rule="evenodd" clip-rule="evenodd" d="M0.00189637 1160.37C27.0662 1152.25 55.684 1142.6 84.6103 1134.23C111.402 1139.95 140.34 1144.03 167.547 1149.03C141.538 1156.97 113.371 1166.27 87.35 1175.49C56.9531 1170.39 28.8333 1165.7 0.00189637 1160.38V1160.37Z" fill="#1A1A1A"/>
<path fill-rule="evenodd" clip-rule="evenodd" d="M2079.92 123.184C2085.88 123.419 2091.26 123.478 2096.63 123.525C2102.93 127.517 2109.5 131.686 2116.28 136.149C2110.93 135.901 2106.03 136.349 2100.64 136.302C2093.85 131.851 2087.06 127.352 2079.93 123.184H2079.92Z" fill="#1A1A1A"/>
<path fill-rule="evenodd" clip-rule="evenodd" d="M2944.8 780.259C2946.63 778.905 2948.46 777.503 2949.66 776.208C2953.06 778.375 2956.78 780.848 2959.89 782.826C2958.69 784.274 2957.19 785.511 2955.68 787.065C2951.96 784.557 2948.53 782.461 2944.8 780.271V780.259Z" fill="#1A1A1A"/>
<path fill-rule="evenodd" clip-rule="evenodd" d="M1336.65 635.926C1350.12 632.652 1364.55 630.698 1378.3 627.73C1391.84 632.429 1404.16 636.538 1416.27 641.366C1403.8 643.651 1390.29 646.865 1376.19 650.08C1363.01 645.229 1349.48 640.566 1336.66 635.926H1336.65Z" fill="#1A1A1A"/>
<path fill-rule="evenodd" clip-rule="evenodd" d="M1382.64 879.892C1394.8 872.32 1406.82 864.784 1418.92 858.225C1435.86 864.713 1453.13 872.343 1470.51 879.703C1459.26 887.181 1448.07 894.47 1436.77 902.972C1417.92 894.446 1400.08 887.298 1382.64 879.88V879.892Z" fill="#1A1A1A"/>
<path fill-rule="evenodd" clip-rule="evenodd" d="M2983.21 841.998C2984.37 838.665 2985.21 835.262 2986.06 832.354C2990.82 835.757 2995.91 839.525 3001.01 843.446C3000.5 846.849 2999.98 850.712 2999.17 854.197C2994.05 850.182 2988.63 846.096 2983.21 841.986V841.998Z" fill="#1A1A1A"/>
<path fill-rule="evenodd" clip-rule="evenodd" d="M1676.99 578.626C1687.95 572.385 1698.05 566.815 1707.44 561.387C1721.86 569.359 1736.88 577.825 1751.9 586.445C1742.46 592.227 1734.03 599.174 1723.51 605.145C1707.54 596.207 1692.3 587.316 1676.99 578.626Z" fill="#1A1A1A"/>
</g>
<defs>
<clipPath id="clip0_237_263">
<rect width="3085" height="1676" fill="white" transform="matrix(-1 0 0 1 3085 0)"/>
</clipPath>
</defs>
</svg>
