<svg width="1924" height="1286" viewBox="0 0 1924 1286" fill="none" xmlns="http://www.w3.org/2000/svg">
<g clip-path="url(#clip0_236_196)">
<path d="M0.847656 1284.69C641.523 1281.97 1282.35 1280.77 1923.03 1284.69" stroke="url(#paint0_linear_236_196)" stroke-miterlimit="10"/>
<path d="M0.847656 1259.12C186.325 1246.71 374.648 1242.47 560.382 1252.27C636.244 1256.27 712.311 1258.25 788.198 1254.04C870.955 1249.45 949.738 1231.14 1031.39 1219.95C1176.61 1200.05 1323.85 1246.81 1468.45 1254.61C1620.76 1262.84 1770.33 1241.45 1923.03 1260.94" stroke="url(#paint1_linear_236_196)" stroke-miterlimit="10"/>
<path d="M0.847656 1230.55C193.501 1209.23 393.177 1205.33 586.293 1224.47C663.718 1232.14 741.784 1236.19 819.338 1228.06C910.859 1218.49 990.284 1183.25 1078.35 1161.73C1225.43 1125.8 1370.64 1213.06 1515.04 1227.24C1578.42 1233.47 1641.16 1219.85 1704.39 1215.77C1779.15 1210.93 1850.47 1218.65 1923.03 1237.19" stroke="url(#paint2_linear_236_196)" stroke-miterlimit="10"/>
<path d="M0.847656 1199.56C199.422 1170.76 403.583 1174.3 602.311 1201C680.505 1211.49 758.751 1217.26 837.124 1205.1C877.9 1198.77 917.676 1188.12 956.581 1174.4C1009.48 1155.76 1058.25 1121.49 1110.71 1104.36C1257.95 1056.26 1397.68 1178.97 1537.31 1200.9C1601.38 1210.95 1659.84 1190.1 1722.97 1182.89C1793.27 1174.86 1857.29 1188.61 1923.05 1213.47" stroke="url(#paint3_linear_236_196)" stroke-miterlimit="10"/>
<path d="M0.847656 1166.63C195.244 1132.54 393.844 1143.21 587.548 1177.71C671.612 1192.69 755.803 1202.56 840.379 1185.38C947.765 1163.55 1026.96 1098.94 1125.27 1057.65C1284.71 990.681 1411.68 1153.14 1560.4 1177.84C1619.12 1187.59 1667.53 1162.71 1723.74 1151.86C1795.88 1137.93 1858.21 1158.42 1923.03 1189.74" stroke="url(#paint4_linear_236_196)" stroke-miterlimit="10"/>
<path d="M0.847656 1132.29C195.398 1092.33 386.232 1115.97 577.912 1159.24C662.232 1178.28 746.782 1188.69 831.845 1167.63C876.004 1156.7 917.728 1138.88 958.017 1117.95C1018.32 1086.63 1071.68 1034.31 1132.19 1006.33C1294.83 931.099 1410.88 1120.8 1555.56 1152.29C1621.4 1166.63 1665.2 1135.13 1725.91 1119.67C1798.09 1101.3 1861.01 1130.93 1923.03 1165.99" stroke="url(#paint5_linear_236_196)" stroke-miterlimit="10"/>
<path d="M0.847656 1097.07C191.554 1051.75 366.472 1089.58 551.258 1139.93C637.064 1163.3 722.819 1177.43 810.188 1153.19C856.423 1140.37 899.454 1119.23 940.768 1095.15C1005.51 1057.42 1061.35 997.273 1126.53 963.057C1297.7 873.21 1399.22 1093.51 1547.15 1128.59C1616.68 1145.09 1657.41 1107.28 1719.33 1087.76C1794.27 1064.14 1860.88 1103.38 1923 1142.24" stroke="url(#paint6_linear_236_196)" stroke-miterlimit="10"/>
<path d="M0.847656 1061.47C182.968 1011.25 337.639 1060.86 510.225 1117.64C595.827 1145.8 681.197 1166.89 770.412 1143.8C906.143 1108.69 994.615 1001.84 1108.69 929.842C1293.94 812.961 1376.49 1073.24 1538.11 1106.38C1608.07 1120.75 1647.64 1076.09 1709.49 1054.52C1787.81 1027.2 1860.11 1076.4 1923.03 1118.44" stroke="url(#paint7_linear_236_196)" stroke-miterlimit="10"/>
<path d="M0.847656 1026.05C177.56 968.931 313.24 1033.13 475.524 1096.76C563.149 1131.11 651.775 1158.96 745.142 1130.57C883.564 1088.48 973.779 973.83 1088.21 894.088C1282.76 758.535 1346.63 1048.19 1513.73 1082.25C1584.85 1096.74 1628.76 1047.19 1689.65 1023C1775.66 988.834 1854.62 1046.98 1923.03 1094.76" stroke="url(#paint8_linear_236_196)" stroke-miterlimit="10"/>
<path d="M0.847656 991.271C80.0159 961.082 157.288 954.132 239.172 978.498C314.778 1000.99 379.697 1046.42 451.048 1078.55C535.316 1116.51 621.891 1149.81 714.105 1119.57C860.575 1071.53 948.739 941.076 1068.27 854.538C1261.82 714.393 1318.13 1013.12 1477.03 1053.42C1557.48 1073.81 1604.1 1014.69 1672.5 987.654C1764.95 951.105 1851.32 1019.33 1923.03 1071.01" stroke="url(#paint9_linear_236_196)" stroke-miterlimit="10"/>
<path d="M0.847656 957.697C72.0965 925.405 143.089 915.351 218.336 940.589C292.455 965.443 352.658 1017.77 420.934 1053.98C500.358 1096.12 582.089 1138.42 673.483 1111.43C826.719 1066.24 922.905 919.737 1041.82 824.939C1244.6 663.275 1278.25 988.372 1444.38 1025.79C1529.62 1045 1582.7 976.446 1655.9 949.72C1754.36 913.786 1848.81 992.297 1923 1047.24" stroke="url(#paint10_linear_236_196)" stroke-miterlimit="10"/>
<path d="M0.847656 925.815C165.514 837.327 264.417 942 398.534 1026.59C474.704 1074.63 556.717 1130.21 650.058 1099.28C801.218 1049.19 900.659 898.577 1015.25 798.418C1089.21 733.784 1160.02 718.779 1223.38 800.547C1278.33 871.44 1313.62 973.548 1411.39 994.092C1496.53 1011.97 1556.66 941.795 1629.7 913.196C1737.19 871.081 1843.6 963.16 1923.03 1023.51" stroke="url(#paint11_linear_236_196)" stroke-miterlimit="10"/>
<path d="M0.847656 896.165C160.337 795.853 259.727 900.013 385.514 994.554C452.611 1044.98 528.576 1114.82 619.226 1091.15C674.405 1076.73 723.331 1035.77 765.465 999.607C846.453 930.124 913.678 848.151 990.566 774.745C1064.27 704.364 1136.93 676.664 1200.13 769.512C1247.24 838.712 1283.38 945.616 1378.08 960.723C1468.11 975.087 1534 897.781 1612.97 871.055C1726.86 832.48 1841.68 936.152 1923.03 999.709" stroke="url(#paint12_linear_236_196)" stroke-miterlimit="10"/>
<path d="M0.847656 869.286C63.0238 824.529 131.633 796.443 207.392 823.708C274.848 847.997 327.285 904.424 379.133 951.438C437.567 1004.43 511.379 1098.51 601.08 1080.02C651.57 1069.6 695.985 1030.92 733.711 997.991C816.98 925.277 889.971 841.046 964.834 760.022C1034.9 684.153 1112.56 629.573 1177.91 735.169C1221.92 806.241 1256.08 918.659 1355.88 922.609C1444.46 926.123 1511.01 855.333 1590.85 829.222C1713.31 789.185 1837.53 906.861 1923.05 975.984" stroke="url(#paint13_linear_236_196)" stroke-miterlimit="10"/>
<path d="M0.847656 844.612C64.664 794.853 135.759 761.818 216.363 790.493C284.382 814.68 340.715 869.824 390.999 919.403C443.282 970.983 513.455 1072.29 599.056 1055.01C646.957 1045.34 689.091 1006.58 724.408 975.138C805.165 903.193 877.285 821.169 950.251 741.581C1017.07 668.713 1095.54 602.283 1161.82 707.391C1205.18 776.155 1238.12 885.906 1336.05 887.265C1423.85 888.471 1497.07 824.683 1579.06 802.83C1706.67 768.794 1831.38 880.366 1923.03 951.644" stroke="url(#paint14_linear_236_196)" stroke-miterlimit="10"/>
<path d="M0.847656 817.116C71.2507 761.689 146.37 731.886 232.432 770.359C303.604 802.189 365.934 862.412 421.011 915.736C470.423 963.596 531.651 1044.36 609.564 1019.2C657.106 1003.84 698.445 962.801 733.916 929.817C805.011 863.72 871.083 792.134 938.154 722.011C1002.07 655.145 1079.63 590.1 1148.34 683.333C1197.21 749.66 1228.33 855.743 1325.9 860.591C1412.8 864.9 1496.84 807.524 1580.62 792.134C1707.33 768.845 1825.18 856.256 1923.05 923.61" stroke="url(#paint15_linear_236_196)" stroke-miterlimit="10"/>
<path d="M0.847656 786.569C76.5559 728.757 153.699 703.339 242.145 748.993C309.909 783.953 372.444 840.251 428.187 891.626C480.137 939.512 543.928 1022.02 622.429 985.5C663.41 966.443 697.138 930.15 729.328 899.449C797.04 834.814 861.087 766.281 927.21 700.056C995.614 631.548 1073.12 578.43 1144.08 669.508C1192.93 732.219 1228.12 830.941 1320.74 835.045C1405.96 838.841 1490.61 797.982 1573.78 784.389C1702.16 763.408 1816.13 828.915 1923.05 892.036" stroke="url(#paint16_linear_236_196)" stroke-miterlimit="10"/>
<path d="M0.847656 753.533C88.1659 690.489 171.46 676.228 264.443 734.887C331.258 777.027 393.024 834.121 452.816 885.598C502.742 928.586 558.895 996.067 628.76 956.979C666.178 936.049 697.318 898.731 727.124 868.542C790.582 804.241 852.374 738.375 917.676 675.92C985.337 611.209 1062.79 564.502 1134.81 646.27C1188.58 707.314 1225.81 804.677 1318.21 813.5C1399.63 821.271 1488.36 789.416 1568.45 777.002C1696.44 757.175 1809.06 802.445 1923 857.718" stroke="url(#paint17_linear_236_196)" stroke-miterlimit="10"/>
<path d="M0.847656 718.625C95.4446 654.94 182.43 648.117 277.232 714.752C348.762 765.024 413.04 828.556 481.06 883.649C527.833 921.506 579.578 973.419 638.038 929.919C676.686 901.167 708.236 857.846 740.323 822.554C794.58 762.921 850.195 704.082 909.885 649.861C983.031 583.405 1062.35 552.011 1136.01 632.112C1189.93 690.745 1231.25 782.26 1319.85 792.186C1403.71 801.573 1494.38 779.541 1577.45 768.127C1699.59 751.353 1808.31 778.669 1923.03 821.169" stroke="url(#paint18_linear_236_196)" stroke-miterlimit="10"/>
<path d="M0.847656 682.384C108.695 614.902 200.37 622.084 299.375 701.184C374.494 761.202 438.515 831.043 516.812 887.676C570.531 926.508 609.256 948.438 658.285 894.319C741.605 802.343 809.086 697.516 906.707 618.211C978.366 560.014 1057.2 538.315 1128.6 606.053C1188.93 663.275 1229.53 751.122 1316.62 771.744C1397.02 790.749 1497.92 772 1578.75 760.971C1698.06 744.684 1805.72 754.251 1923.05 783.183" stroke="url(#paint19_linear_236_196)" stroke-miterlimit="10"/>
<path d="M0.847656 645.424C121.612 574.916 219.951 597.82 321.775 688.078C394.715 752.738 455.379 827.607 538.161 880.725C598.928 919.737 630.913 926.636 672.483 864.515C738.35 766.101 804.652 665.507 900.607 592.921C978.187 534.211 1056.79 521.028 1132.6 588.715C1195.73 645.09 1240.65 735.784 1329.92 755.739C1409.09 773.436 1501.48 765.024 1581.29 754.149C1697.16 738.349 1806.01 731.219 1923.05 744.274" stroke="url(#paint20_linear_236_196)" stroke-miterlimit="10"/>
<path d="M0.847656 608.336C132.479 535.622 235.456 571.453 339.792 670.944C413.629 741.35 474.498 827.35 565.405 877.262C632.886 914.325 656.567 895.063 688.758 831.531C739.964 730.501 804.729 628.393 899.582 562.578C979.878 506.844 1061.1 505.125 1136.52 569.17C1202.31 625.059 1250.24 713.393 1338.38 738.169C1527.42 791.314 1733.14 711.88 1923.05 705.288" stroke="url(#paint21_linear_236_196)" stroke-miterlimit="10"/>
<path d="M0.847656 571.684C66.3299 536.776 127.891 516.052 201.164 541.47C261.777 562.502 311.421 606.643 355.887 651.605C429.238 725.833 491.952 825.709 589.676 869.824C662.975 902.911 680.326 858.334 705.058 796.136C745.372 694.669 806.241 590.715 901.351 531.313C1108.64 401.813 1183.45 663.84 1348.37 720.652C1540.98 787.005 1734.71 703.287 1923.05 666.789" stroke="url(#paint22_linear_236_196)" stroke-miterlimit="10"/>
<path d="M0.847656 536.058C69.1491 499.893 132.094 479.733 206.7 507.203C269.287 530.236 319.878 577.301 365.216 624.982C436.516 699.953 510.251 829.735 616.612 859.59C691.064 880.494 702.802 810.781 721.665 754.662C754.676 656.427 811.572 548.113 906.758 496.148C1104.36 388.27 1203.88 630.83 1353.06 699.389C1548.79 789.339 1738.32 697.106 1923.03 629.445" stroke="url(#paint23_linear_236_196)" stroke-miterlimit="10"/>
<path d="M0.847656 502.073C69.8155 464.524 131.94 444.133 207.854 470.731C270.799 492.789 322.236 542.008 366.985 589.971C439.592 667.815 517.427 815.68 630.323 837.738C707.057 852.742 717.821 776.027 734.582 718.42C763.364 619.596 815.186 510.204 914.652 464.242C1112.53 372.804 1219.25 605.668 1365.21 680.973C1441.2 720.164 1539.59 740.247 1624.24 726.602C1731.55 709.315 1829.69 645.68 1923.05 594.05" stroke="url(#paint24_linear_236_196)" stroke-miterlimit="10"/>
<path d="M0.847656 470.269C74.3006 427.769 145.293 403.275 226.614 440.004C287.637 467.576 336.05 518.258 379.799 567.452C445.358 641.166 527.986 796.469 638.268 808.114C721.281 816.886 731.763 726.166 749.55 664.917C777.05 570.248 826.565 468.756 926.236 432.232C1122.63 360.236 1236.19 576.121 1377.9 660.48C1449.51 703.108 1543.1 732.296 1626.86 721.857C1739.06 707.853 1836.17 626.598 1923 561.065" stroke="url(#paint25_linear_236_196)" stroke-miterlimit="10"/>
<path d="M0.847656 441.26C70.1999 397.042 138.476 366.264 220.412 399.376C286.074 425.922 338.357 482.273 383.464 534.929C447.947 610.208 529.037 764.767 643.599 767.486C725.279 769.41 740.4 677.382 759.673 615.928C789.48 520.976 836.612 428.872 941.153 402.018C1141.34 350.567 1252.49 547.959 1395.74 642.654C1465.86 689.027 1559.38 727.269 1644.8 714.932C1756.52 698.773 1846.27 605.848 1923.03 531.313" stroke="url(#paint26_linear_236_196)" stroke-miterlimit="10"/>
<path d="M0.847656 415.637C64.5103 369.444 130.633 330.74 211.596 357.876C274.694 379.011 324.389 430.77 366.856 479.862C436.414 560.245 506.381 703.236 626.12 712.367C717.155 719.292 740.81 630.753 767.003 560.706C802.73 465.139 852.527 384.218 961.938 369.418C1155.9 343.18 1267.67 510.076 1402.42 615.133C1469.98 667.79 1561.45 718.215 1649.85 709.597C1767.1 698.158 1853.39 589.048 1923.03 505.408" stroke="url(#paint27_linear_236_196)" stroke-miterlimit="10"/>
<path d="M0.847656 395.426C64.2027 351.182 129.531 314.761 208.879 340.615C270.671 360.749 319.853 410.225 361.807 457.829C429.391 534.468 500.922 681.589 617.227 685.615C707.159 688.719 737.94 609.003 770.181 538.931C811.521 449.134 867.469 366.93 973.573 352.593C1160.74 327.303 1277.66 483.222 1410.5 582.944C1475.67 631.856 1567.6 681.614 1651.31 679.973C1768.33 677.664 1855.01 566.272 1923.03 484.966" stroke="url(#paint28_linear_236_196)" stroke-miterlimit="10"/>
<path d="M0.847656 381.601C63.2032 338.896 127.583 303.476 205.368 327.021C265.468 345.206 313.932 391.527 355.221 436.874C421.728 509.948 492.951 655.53 605.489 656.222C693.73 656.761 731.302 586.483 769.822 518.027C816.877 434.412 878.643 354.183 980.98 340.128C1161.38 315.377 1283.25 455.213 1416.16 548.292C1480.7 593.485 1571.63 643.911 1651.49 651.041C1767.92 661.429 1856.01 548.934 1923 470.551" stroke="url(#paint29_linear_236_196)" stroke-miterlimit="10"/>
<path d="M0.847656 373.035C60.6659 332.125 124.61 296.755 199.319 315.735C263.007 331.894 313.599 380.088 356.964 426.743C422.882 497.662 488.979 629.393 599.107 624.494C682.427 620.801 724.895 557.5 768.413 495.199C821.849 418.664 886.358 346.899 984.21 332.997C1161.9 307.733 1286.38 428.615 1424.62 514.846C1488.49 554.704 1569.53 601.975 1643.11 621.032C1762.38 651.913 1853.21 540.059 1923.03 461.061" stroke="url(#paint30_linear_236_196)" stroke-miterlimit="10"/>
<path d="M0.847656 368.623C59.0256 328.329 121.612 292.19 195.09 307.143C256.267 319.608 305.987 362.493 348.609 405.557C415.449 473.064 477.676 594.306 584.37 589.561C665.307 585.97 713.977 532.672 763.492 475.245C822.823 406.455 891.304 341.102 985.388 327.406C1155.57 302.629 1285.97 399.273 1425.82 476.168C1495.23 514.333 1568.22 560.988 1641.08 591.869C1758.39 641.602 1850.6 533.98 1923 455.47" stroke="url(#paint31_linear_236_196)" stroke-miterlimit="10"/>
<path d="M0.847656 367.264C123.252 280.417 229.126 280.853 340.279 383.833C408.529 447.057 466.528 555.576 569.48 551.883C647.777 549.062 702.213 505.869 757.392 455.162C822.413 395.426 894.046 337.639 984.389 324.2C1146.54 300.064 1283.84 369.957 1424.95 436.259C1502.63 472.757 1565.48 518.54 1637.83 562.938C1752.08 633.035 1845.35 532.954 1923.05 452.802" stroke="url(#paint32_linear_236_196)" stroke-miterlimit="10"/>
<path d="M0.847656 367.854C114.769 284.341 219.617 268.131 332.437 361.082C402.481 418.792 456.43 513.333 555.204 511.384C719.666 508.152 820.952 346.95 981.698 322.635C1135.68 299.346 1280.33 340.64 1421.95 395.349C1508.53 428.795 1563.04 476.168 1633.27 533.954C1743.42 624.597 1837.04 535.929 1923.03 451.879" stroke="url(#paint33_linear_236_196)" stroke-miterlimit="10"/>
<path d="M0.847656 369.29C105.03 289.83 209.058 256.179 322.851 334.895C393.203 383.551 444.794 464.857 535.701 467.986C699.163 473.655 820.799 345.514 977.674 321.019C1120.81 298.679 1273.79 311.068 1411.88 352.516C1510.19 382.037 1560.4 435.72 1629.7 507.383C1655.59 534.16 1684.7 562.04 1723.58 566.246C1800.93 574.582 1873.28 497.867 1923.03 451.802" stroke="url(#paint34_linear_236_196)" stroke-miterlimit="10"/>
<path d="M0.847656 370.47C97.7768 293.575 201.318 244.714 317.649 309.093C389.615 348.925 439.669 416.535 525.5 421.536C685.195 430.847 819.722 345.206 973.343 321.327C1111.15 299.91 1267.31 282.059 1404.94 311.606C1510.81 334.331 1558.43 397.709 1622.6 478.707C1647.18 509.742 1675.02 545.445 1715.64 555.192C1794.11 574.018 1871.54 496.636 1923 451.52" stroke="url(#paint35_linear_236_196)" stroke-miterlimit="10"/>
<path d="M0.847656 370.265C95.4446 292.293 200.575 231.941 322.364 283.957C388.769 312.324 438.182 364.314 512.071 371.547C670.868 387.116 815.263 344.872 970.319 322.096C1052.02 310.093 1132.53 298.192 1213.54 281.854C1276.51 269.157 1337.71 262.566 1401.73 271.748C1512.35 287.599 1559.07 366.699 1616.43 452.879C1639.39 487.377 1666.99 530.21 1708.72 543.932C1788.68 570.247 1868.44 495.353 1923.03 449.878" stroke="url(#paint36_linear_236_196)" stroke-miterlimit="10"/>
<path d="M0.847656 367.597C91.959 290.087 197.141 218.27 321.672 251.486C387.693 269.106 440.976 310.093 509.585 318.762C666.101 338.512 811.111 343 967.499 321.199C1050.31 309.657 1127.94 292.652 1206.93 265.259C1267.74 244.176 1326.1 226.888 1391.3 231.505C1507.4 239.713 1554.56 333.151 1606.97 423.896C1629.29 462.549 1656.25 512.281 1699.52 531.082C1781.02 566.503 1865 492.07 1923.08 445.98" stroke="url(#paint37_linear_236_196)" stroke-miterlimit="10"/>
<path d="M0.847656 361.365C90.6776 283.136 195.449 203.24 321.467 215.347C389.128 221.836 451.048 253.845 518.222 263.746C671.765 286.394 806.831 338.076 964.552 318.813C1048 308.605 1122.99 286.804 1198.19 249.511C1254.83 221.425 1308.8 193.007 1373.69 192.186C1499.84 190.647 1547.49 300.911 1598.28 398.171C1620.22 440.183 1646.59 494.84 1691.29 517.36C1774.23 559.167 1861.67 485.53 1923.03 438.67" stroke="url(#paint38_linear_236_196)" stroke-miterlimit="10"/>
<path d="M0.847656 350.464C92.5228 269.696 197.576 184.594 324.825 176.181C393.434 171.641 465.657 192.058 532.42 205.908C682.581 237.045 807.6 331.766 967.064 314.53C1049.05 305.681 1121.45 278.981 1190.19 233.942C1245.65 197.598 1296.47 158.637 1365.34 154.61C1494.23 147.095 1541.44 275.159 1588.47 372.342C1610.81 418.484 1636.47 474.296 1682.55 501.612C1765.31 550.652 1860.72 473.167 1923.03 427" stroke="url(#paint39_linear_236_196)" stroke-miterlimit="10"/>
<path d="M0.847656 333.741C157.723 195.853 323.056 89.5396 536.623 141.196C688.655 177.976 805.754 321.019 970.703 307.528C1054.28 300.68 1124.68 267.106 1188.27 213.936C1238.07 172.308 1282.43 126.653 1350.37 119.292C1479.95 105.262 1527.44 236.43 1571.86 333.484C1596.1 386.449 1622.35 452.699 1674.96 484.247C1759.8 535.109 1858.31 456.957 1923 409.866" stroke="url(#paint40_linear_236_196)" stroke-miterlimit="10"/>
<path d="M0.847656 311.016C151.803 181.952 345.994 39.1913 557.178 98.3885C705.416 139.939 817.416 298.166 980.34 289.805C1061.81 285.624 1131.04 246.561 1188.55 191.211C1234.17 147.326 1274.95 97.8242 1342.04 90.3861C1466.34 76.5614 1516.94 206.036 1560.74 298.089C1586.95 353.157 1614.43 420.562 1668.35 454.444C1754.7 508.691 1854.42 434.617 1923 386.808" stroke="url(#paint41_linear_236_196)" stroke-miterlimit="10"/>
<path d="M0.847656 287.265C152.341 163.69 351.223 27.239 559.074 78.4851C711.849 116.137 832.87 273.159 998.28 262.412C1073.24 257.539 1136.06 221.092 1188.7 169.692C1230.71 128.68 1267.54 81.9477 1328.87 71.919C1451.2 51.913 1511.63 184.645 1559.1 272.671C1586.36 323.199 1615.94 381.755 1665.43 414.355C1751.98 471.372 1849.37 408.25 1923.03 360.8" stroke="url(#paint42_linear_236_196)" stroke-miterlimit="10"/>
<path d="M0.847656 263.515C155.212 144.3 363.781 12.4654 570.095 64.994C720.102 103.185 848.504 246.51 1010.38 237.712C1079.4 233.968 1139.83 197.162 1188.09 150.327C1226.76 112.803 1261.18 68.0975 1316.75 56.3247C1437.15 30.8299 1506.4 164.588 1558.84 248.1C1590.36 298.295 1623.32 353.542 1677.45 381.935C1763.1 426.846 1848.29 377.267 1923.03 332.869" stroke="url(#paint43_linear_236_196)" stroke-miterlimit="10"/>
<path d="M0.847656 239.764C160.158 124.268 373.802 2.97524 579.911 54.0674C728.483 90.899 862.343 223.605 1021.73 212.705C1085.93 208.319 1140.8 176.027 1186.68 132.86C1225.25 96.5673 1259.9 52.3233 1315 42.1408C1429.49 20.955 1504.07 146.557 1559.94 224.375C1592 269.029 1625.99 314.581 1674.86 341.641C1759.9 388.68 1845.6 345.616 1923.03 303.347" stroke="url(#paint44_linear_236_196)" stroke-miterlimit="10"/>
<path d="M0.847656 216.013C161.26 107.904 368.24 3.53969 569.377 41.4741C725.048 70.8419 865.726 201.035 1029.21 189.57C1091.21 185.209 1144.01 153.559 1189.17 112.88C1226.1 79.5881 1259.65 41.2176 1310.83 31.5481C1416.78 11.5164 1495.66 119.703 1553.89 190.39C1592 236.686 1633.65 287.496 1690.67 311.17C1771.3 344.642 1850.68 308.887 1923.05 272.62" stroke="url(#paint45_linear_236_196)" stroke-miterlimit="10"/>
<path d="M0.847656 192.263C165.258 90.54 376.519 -2.79563 575.785 35.344C727.688 64.4296 875.286 179.951 1034.16 168.23C1149.54 159.714 1199.9 46.5268 1303.91 23.5969C1408.47 0.564353 1493.61 102.492 1557.89 168.461C1596.54 208.139 1636.88 249.818 1689.06 271.363C1769.84 304.707 1848.24 275.134 1923 241.021" stroke="url(#paint46_linear_236_196)" stroke-miterlimit="10"/>
<path d="M0.847656 168.512C169.589 74.0991 376.852 -2.53922 574.247 29.2395C727.381 53.8879 877.695 158.612 1036.26 146.736C1145.19 138.58 1203.41 36.8828 1303.96 17.159C1401.99 -2.05189 1486.33 78.8697 1553.66 137.99C1595.23 174.514 1638.01 212.833 1690.37 233.121C1770.56 264.207 1847.27 240.354 1923.05 208.986" stroke="url(#paint47_linear_236_196)" stroke-miterlimit="10"/>
<path d="M0.847656 144.761C172.127 59.8127 377.082 -2.92398 570.915 24.7253C724.151 46.578 878.028 137.169 1035.29 125.756C1139.8 118.164 1207.41 29.932 1306.11 11.9779C1403.48 -5.74534 1492.15 67.3791 1564.96 120.805C1604.51 149.814 1645.72 179.156 1692.37 195.674C1772.76 224.144 1846.14 205.369 1923.03 176.848" stroke="url(#paint48_linear_236_196)" stroke-miterlimit="10"/>
<path d="M0.847656 121.011C173.946 46.9371 376.032 -2.66747 566.046 20.8267C719.538 39.8068 874.85 115.547 1031.26 105.185C1133.91 98.3884 1212.39 24.5971 1311.42 8.51536C1402.81 -6.30959 1488.97 48.8864 1563.76 93.8229C1685.32 166.87 1785.63 189.929 1923.03 144.915" stroke="url(#paint49_linear_236_196)" stroke-miterlimit="10"/>
<path d="M0.847656 97.2599C174.972 35.3696 366.651 1.28247 552.078 16.9538C708.774 30.2142 864.599 92.1302 1022.91 84.1791C1129.09 78.8441 1220.07 15.9022 1324.59 5.23237C1410.93 -3.59078 1492.43 35.6774 1568.4 71.5856C1690.24 129.218 1790.68 150.968 1923.03 113.649" stroke="url(#paint50_linear_236_196)" stroke-miterlimit="10"/>
<path d="M0.847656 73.5092C178.098 24.315 367.343 1.41069 551.386 14.4659C704.981 25.3666 859.165 71.1495 1013.79 64.5065C1122.38 59.8384 1223.71 13.6195 1331.46 4.12945C1422.13 -3.8473 1507.27 27.8032 1591.59 56.9914C1704.85 96.2083 1804.65 110.802 1923.03 83.4096" stroke="url(#paint51_linear_236_196)" stroke-miterlimit="10"/>
<path d="M0.847656 49.7842C175.51 15.9279 356.451 2.56492 534.342 10.516C689.245 17.4412 843.967 47.8092 999.305 43.7054C1118.22 40.5763 1234.25 8.84885 1352.91 2.66751C1437.59 -1.74406 1519.45 17.7746 1601.38 36.729C1710.51 61.9673 1811.67 73.7144 1923.03 54.5035" stroke="url(#paint52_linear_236_196)" stroke-miterlimit="10"/>
<path d="M0.847656 26.0334C174.126 8.0793 349.172 2.56483 523.348 6.48908C676.481 9.95165 829.538 25.2126 982.8 23.1607C1113.15 21.4166 1242.83 5.10405 1373.13 1.87231C1557.94 -2.71881 1737.65 46.0137 1923.03 27.3415" stroke="url(#paint53_linear_236_196)" stroke-miterlimit="10"/>
<path d="M0.847656 2.28281C641.549 -1.25671 1282.33 6.15576 1923.03 2.28281" stroke="url(#paint54_linear_236_196)" stroke-miterlimit="10"/>
</g>
<defs>
<linearGradient id="paint0_linear_236_196" x1="961.938" y1="1282.18" x2="961.938" y2="1284.69" gradientUnits="userSpaceOnUse">
<stop stop-color="#333333"/>
<stop offset="1" stop-color="#333333" stop-opacity="0"/>
</linearGradient>
<linearGradient id="paint1_linear_236_196" x1="961.938" y1="1215.06" x2="961.938" y2="1260.94" gradientUnits="userSpaceOnUse">
<stop stop-color="#333333"/>
<stop offset="1" stop-color="#333333" stop-opacity="0"/>
</linearGradient>
<linearGradient id="paint2_linear_236_196" x1="961.938" y1="1153.12" x2="961.938" y2="1237.19" gradientUnits="userSpaceOnUse">
<stop stop-color="#333333"/>
<stop offset="1" stop-color="#333333" stop-opacity="0"/>
</linearGradient>
<linearGradient id="paint3_linear_236_196" x1="961.951" y1="1093.28" x2="961.951" y2="1213.47" gradientUnits="userSpaceOnUse">
<stop stop-color="#333333"/>
<stop offset="1" stop-color="#333333" stop-opacity="0"/>
</linearGradient>
<linearGradient id="paint4_linear_236_196" x1="961.938" y1="1041.58" x2="961.938" y2="1194.45" gradientUnits="userSpaceOnUse">
<stop stop-color="#333333"/>
<stop offset="1" stop-color="#333333" stop-opacity="0"/>
</linearGradient>
<linearGradient id="paint5_linear_236_196" x1="961.938" y1="988.824" x2="961.938" y2="1179.26" gradientUnits="userSpaceOnUse">
<stop stop-color="#333333"/>
<stop offset="1" stop-color="#333333" stop-opacity="0"/>
</linearGradient>
<linearGradient id="paint6_linear_236_196" x1="961.925" y1="941.686" x2="961.925" y2="1165.81" gradientUnits="userSpaceOnUse">
<stop stop-color="#333333"/>
<stop offset="1" stop-color="#333333" stop-opacity="0"/>
</linearGradient>
<linearGradient id="paint7_linear_236_196" x1="961.938" y1="899.861" x2="961.938" y2="1153.66" gradientUnits="userSpaceOnUse">
<stop stop-color="#333333"/>
<stop offset="1" stop-color="#333333" stop-opacity="0"/>
</linearGradient>
<linearGradient id="paint8_linear_236_196" x1="961.938" y1="858.197" x2="961.938" y2="1142.29" gradientUnits="userSpaceOnUse">
<stop stop-color="#333333"/>
<stop offset="1" stop-color="#333333" stop-opacity="0"/>
</linearGradient>
<linearGradient id="paint9_linear_236_196" x1="961.938" y1="817.397" x2="961.938" y2="1131.32" gradientUnits="userSpaceOnUse">
<stop stop-color="#333333"/>
<stop offset="1" stop-color="#333333" stop-opacity="0"/>
</linearGradient>
<linearGradient id="paint10_linear_236_196" x1="961.925" y1="780.147" x2="961.925" y2="1119.92" gradientUnits="userSpaceOnUse">
<stop stop-color="#333333"/>
<stop offset="1" stop-color="#333333" stop-opacity="0"/>
</linearGradient>
<linearGradient id="paint11_linear_236_196" x1="961.938" y1="744.476" x2="961.938" y2="1108.21" gradientUnits="userSpaceOnUse">
<stop stop-color="#333333"/>
<stop offset="1" stop-color="#333333" stop-opacity="0"/>
</linearGradient>
<linearGradient id="paint12_linear_236_196" x1="961.938" y1="710.304" x2="961.938" y2="1095.9" gradientUnits="userSpaceOnUse">
<stop stop-color="#333333"/>
<stop offset="1" stop-color="#333333" stop-opacity="0"/>
</linearGradient>
<linearGradient id="paint13_linear_236_196" x1="961.951" y1="676.449" x2="961.951" y2="1082.39" gradientUnits="userSpaceOnUse">
<stop stop-color="#333333"/>
<stop offset="1" stop-color="#333333" stop-opacity="0"/>
</linearGradient>
<linearGradient id="paint14_linear_236_196" x1="961.938" y1="652.805" x2="961.938" y2="1056.97" gradientUnits="userSpaceOnUse">
<stop stop-color="#333333"/>
<stop offset="1" stop-color="#333333" stop-opacity="0"/>
</linearGradient>
<linearGradient id="paint15_linear_236_196" x1="961.951" y1="636.878" x2="961.951" y2="1023.95" gradientUnits="userSpaceOnUse">
<stop stop-color="#333333"/>
<stop offset="1" stop-color="#333333" stop-opacity="0"/>
</linearGradient>
<linearGradient id="paint16_linear_236_196" x1="961.951" y1="621.077" x2="961.951" y2="994.564" gradientUnits="userSpaceOnUse">
<stop stop-color="#333333"/>
<stop offset="1" stop-color="#333333" stop-opacity="0"/>
</linearGradient>
<linearGradient id="paint17_linear_236_196" x1="961.925" y1="602.648" x2="961.925" y2="968.719" gradientUnits="userSpaceOnUse">
<stop stop-color="#333333"/>
<stop offset="1" stop-color="#333333" stop-opacity="0"/>
</linearGradient>
<linearGradient id="paint18_linear_236_196" x1="961.938" y1="584.525" x2="961.938" y2="946.442" gradientUnits="userSpaceOnUse">
<stop stop-color="#333333"/>
<stop offset="1" stop-color="#333333" stop-opacity="0"/>
</linearGradient>
<linearGradient id="paint19_linear_236_196" x1="961.951" y1="564.068" x2="961.951" y2="926.652" gradientUnits="userSpaceOnUse">
<stop stop-color="#333333"/>
<stop offset="1" stop-color="#333333" stop-opacity="0"/>
</linearGradient>
<linearGradient id="paint20_linear_236_196" x1="961.951" y1="543.196" x2="961.951" y2="910.626" gradientUnits="userSpaceOnUse">
<stop stop-color="#333333"/>
<stop offset="1" stop-color="#333333" stop-opacity="0"/>
</linearGradient>
<linearGradient id="paint21_linear_236_196" x1="961.951" y1="520.938" x2="961.951" y2="896.007" gradientUnits="userSpaceOnUse">
<stop stop-color="#333333"/>
<stop offset="1" stop-color="#333333" stop-opacity="0"/>
</linearGradient>
<linearGradient id="paint22_linear_236_196" x1="961.951" y1="495.793" x2="961.951" y2="881.063" gradientUnits="userSpaceOnUse">
<stop stop-color="#333333"/>
<stop offset="1" stop-color="#333333" stop-opacity="0"/>
</linearGradient>
<linearGradient id="paint23_linear_236_196" x1="961.938" y1="468.893" x2="961.938" y2="863.385" gradientUnits="userSpaceOnUse">
<stop stop-color="#333333"/>
<stop offset="1" stop-color="#333333" stop-opacity="0"/>
</linearGradient>
<linearGradient id="paint24_linear_236_196" x1="961.951" y1="443.284" x2="961.951" y2="839.644" gradientUnits="userSpaceOnUse">
<stop stop-color="#333333"/>
<stop offset="1" stop-color="#333333" stop-opacity="0"/>
</linearGradient>
<linearGradient id="paint25_linear_236_196" x1="961.925" y1="417.77" x2="961.925" y2="808.705" gradientUnits="userSpaceOnUse">
<stop stop-color="#333333"/>
<stop offset="1" stop-color="#333333" stop-opacity="0"/>
</linearGradient>
<linearGradient id="paint26_linear_236_196" x1="961.938" y1="385.456" x2="961.938" y2="767.516" gradientUnits="userSpaceOnUse">
<stop stop-color="#333333"/>
<stop offset="1" stop-color="#333333" stop-opacity="0"/>
</linearGradient>
<linearGradient id="paint27_linear_236_196" x1="961.938" y1="348.891" x2="961.938" y2="712.749" gradientUnits="userSpaceOnUse">
<stop stop-color="#333333"/>
<stop offset="1" stop-color="#333333" stop-opacity="0"/>
</linearGradient>
<linearGradient id="paint28_linear_236_196" x1="961.938" y1="331.996" x2="961.938" y2="685.703" gradientUnits="userSpaceOnUse">
<stop stop-color="#333333"/>
<stop offset="1" stop-color="#333333" stop-opacity="0"/>
</linearGradient>
<linearGradient id="paint29_linear_236_196" x1="961.925" y1="319.492" x2="961.925" y2="656.225" gradientUnits="userSpaceOnUse">
<stop stop-color="#333333"/>
<stop offset="1" stop-color="#333333" stop-opacity="0"/>
</linearGradient>
<linearGradient id="paint30_linear_236_196" x1="961.938" y1="310.468" x2="961.938" y2="626.291" gradientUnits="userSpaceOnUse">
<stop stop-color="#333333"/>
<stop offset="1" stop-color="#333333" stop-opacity="0"/>
</linearGradient>
<linearGradient id="paint31_linear_236_196" x1="961.925" y1="303.697" x2="961.925" y2="604.522" gradientUnits="userSpaceOnUse">
<stop stop-color="#333333"/>
<stop offset="1" stop-color="#333333" stop-opacity="0"/>
</linearGradient>
<linearGradient id="paint32_linear_236_196" x1="961.951" y1="304.22" x2="961.951" y2="586.632" gradientUnits="userSpaceOnUse">
<stop stop-color="#333333"/>
<stop offset="1" stop-color="#333333" stop-opacity="0"/>
</linearGradient>
<linearGradient id="paint33_linear_236_196" x1="961.938" y1="298.015" x2="961.938" y2="572.086" gradientUnits="userSpaceOnUse">
<stop stop-color="#333333"/>
<stop offset="1" stop-color="#333333" stop-opacity="0"/>
</linearGradient>
<linearGradient id="paint34_linear_236_196" x1="961.938" y1="290.11" x2="961.938" y2="566.874" gradientUnits="userSpaceOnUse">
<stop stop-color="#333333"/>
<stop offset="1" stop-color="#333333" stop-opacity="0"/>
</linearGradient>
<linearGradient id="paint35_linear_236_196" x1="961.925" y1="279.281" x2="961.925" y2="558.089" gradientUnits="userSpaceOnUse">
<stop stop-color="#333333"/>
<stop offset="1" stop-color="#333333" stop-opacity="0"/>
</linearGradient>
<linearGradient id="paint36_linear_236_196" x1="961.938" y1="264.507" x2="961.938" y2="549.394" gradientUnits="userSpaceOnUse">
<stop stop-color="#333333"/>
<stop offset="1" stop-color="#333333" stop-opacity="0"/>
</linearGradient>
<linearGradient id="paint37_linear_236_196" x1="961.963" y1="230.753" x2="961.963" y2="540.339" gradientUnits="userSpaceOnUse">
<stop stop-color="#333333"/>
<stop offset="1" stop-color="#333333" stop-opacity="0"/>
</linearGradient>
<linearGradient id="paint38_linear_236_196" x1="961.938" y1="192.17" x2="961.938" y2="529.744" gradientUnits="userSpaceOnUse">
<stop stop-color="#333333"/>
<stop offset="1" stop-color="#333333" stop-opacity="0"/>
</linearGradient>
<linearGradient id="paint39_linear_236_196" x1="961.938" y1="154.294" x2="961.938" y2="517.296" gradientUnits="userSpaceOnUse">
<stop stop-color="#333333"/>
<stop offset="1" stop-color="#333333" stop-opacity="0"/>
</linearGradient>
<linearGradient id="paint40_linear_236_196" x1="961.925" y1="118.254" x2="961.925" y2="500.815" gradientUnits="userSpaceOnUse">
<stop stop-color="#333333"/>
<stop offset="1" stop-color="#333333" stop-opacity="0"/>
</linearGradient>
<linearGradient id="paint41_linear_236_196" x1="961.925" y1="84.6008" x2="961.925" y2="473.485" gradientUnits="userSpaceOnUse">
<stop stop-color="#333333"/>
<stop offset="1" stop-color="#333333" stop-opacity="0"/>
</linearGradient>
<linearGradient id="paint42_linear_236_196" x1="961.938" y1="67.4155" x2="961.938" y2="436.975" gradientUnits="userSpaceOnUse">
<stop stop-color="#333333"/>
<stop offset="1" stop-color="#333333" stop-opacity="0"/>
</linearGradient>
<linearGradient id="paint43_linear_236_196" x1="961.938" y1="53.1226" x2="961.938" y2="399.624" gradientUnits="userSpaceOnUse">
<stop stop-color="#333333"/>
<stop offset="1" stop-color="#333333" stop-opacity="0"/>
</linearGradient>
<linearGradient id="paint44_linear_236_196" x1="961.938" y1="39.7686" x2="961.938" y2="362.119" gradientUnits="userSpaceOnUse">
<stop stop-color="#333333"/>
<stop offset="1" stop-color="#333333" stop-opacity="0"/>
</linearGradient>
<linearGradient id="paint45_linear_236_196" x1="961.951" y1="29.1152" x2="961.951" y2="324.513" gradientUnits="userSpaceOnUse">
<stop stop-color="#333333"/>
<stop offset="1" stop-color="#333333" stop-opacity="0"/>
</linearGradient>
<linearGradient id="paint46_linear_236_196" x1="961.925" y1="20.2742" x2="961.925" y2="285.973" gradientUnits="userSpaceOnUse">
<stop stop-color="#333333"/>
<stop offset="1" stop-color="#333333" stop-opacity="0"/>
</linearGradient>
<linearGradient id="paint47_linear_236_196" x1="961.951" y1="14.2764" x2="961.951" y2="247.652" gradientUnits="userSpaceOnUse">
<stop stop-color="#333333"/>
<stop offset="1" stop-color="#333333" stop-opacity="0"/>
</linearGradient>
<linearGradient id="paint48_linear_236_196" x1="961.938" y1="9.27173" x2="961.938" y2="209.813" gradientUnits="userSpaceOnUse">
<stop stop-color="#333333"/>
<stop offset="1" stop-color="#333333" stop-opacity="0"/>
</linearGradient>
<linearGradient id="paint49_linear_236_196" x1="961.938" y1="6.05615" x2="961.938" y2="167.94" gradientUnits="userSpaceOnUse">
<stop stop-color="#333333"/>
<stop offset="1" stop-color="#333333" stop-opacity="0"/>
</linearGradient>
<linearGradient id="paint50_linear_236_196" x1="961.938" y1="3.97534" x2="961.938" y2="132.141" gradientUnits="userSpaceOnUse">
<stop stop-color="#333333"/>
<stop offset="1" stop-color="#333333" stop-opacity="0"/>
</linearGradient>
<linearGradient id="paint51_linear_236_196" x1="961.938" y1="2.87842" x2="961.938" y2="97.4867" gradientUnits="userSpaceOnUse">
<stop stop-color="#333333"/>
<stop offset="1" stop-color="#333333" stop-opacity="0"/>
</linearGradient>
<linearGradient id="paint52_linear_236_196" x1="961.938" y1="2.03687" x2="961.938" y2="64.0499" gradientUnits="userSpaceOnUse">
<stop stop-color="#333333"/>
<stop offset="1" stop-color="#333333" stop-opacity="0"/>
</linearGradient>
<linearGradient id="paint53_linear_236_196" x1="961.938" y1="1.56543" x2="961.938" y2="31.6225" gradientUnits="userSpaceOnUse">
<stop stop-color="#333333"/>
<stop offset="1" stop-color="#333333" stop-opacity="0"/>
</linearGradient>
<linearGradient id="paint54_linear_236_196" x1="961.938" y1="1.29517" x2="961.938" y2="3.43713" gradientUnits="userSpaceOnUse">
<stop stop-color="#333333"/>
<stop offset="1" stop-color="#333333" stop-opacity="0"/>
</linearGradient>
<clipPath id="clip0_236_196">
<rect width="1924" height="1286" fill="white"/>
</clipPath>
</defs>
</svg>
