<svg xmlns="http://www.w3.org/2000/svg" width="23" height="18" viewBox="0 0 23 18" fill="none">
<path d="M21.8182 16H24V18H0V16H2.18182V1C2.18182 0.734784 2.29675 0.48043 2.50134 0.292893C2.70592 0.105357 2.9834 0 3.27273 0H14.1818C14.4711 0 14.7486 0.105357 14.9532 0.292893C15.1578 0.48043 15.2727 0.734784 15.2727 1V16H17.4545V6H20.7273C21.0166 6 21.2941 6.10536 21.4987 6.29289C21.7032 6.48043 21.8182 6.73478 21.8182 7V16ZM6.54545 8V10H10.9091V8H6.54545ZM6.54545 4V6H10.9091V4H6.54545Z" fill="white"/>
</svg>