<svg xmlns="http://www.w3.org/2000/svg" width="25" height="25" viewBox="0 0 25 25" fill="none">
<path d="M0.3125 12.592C0.3125 13.1398 0.702637 13.4709 1.18571 13.4709C1.48379 13.4709 1.72006 13.3112 1.92565 13.0829L11.953 2.93731C12.0657 2.81168 12.1893 2.76591 12.3226 2.76591C12.4462 2.76591 12.5593 2.81168 12.682 2.93731L22.6993 13.0829C22.915 13.3112 23.1513 13.4709 23.4393 13.4709C23.9219 13.4709 24.3125 13.1398 24.3125 12.592C24.3125 12.2497 24.1994 12.033 24.0043 11.8388L20.4493 8.24429V1.49942C20.4493 0.997401 20.1617 0.677979 19.7098 0.677979H18.364C17.9221 0.677979 17.614 0.997401 17.614 1.49942V5.37972L13.5452 1.24817C13.1857 0.871774 12.7438 0.689665 12.3125 0.689665C11.8807 0.689665 11.4494 0.872261 11.0794 1.24865L0.620664 11.8388C0.435678 12.033 0.3125 12.2497 0.3125 12.592ZM3.2508 22.1669C3.2508 23.7533 4.11392 24.678 5.56225 24.678H9.72357V16.5634C9.72357 16.0385 10.0418 15.6967 10.5144 15.6967H14.1413C14.6139 15.6967 14.922 16.0385 14.922 16.5634V24.678H19.0728C20.5212 24.678 21.3742 23.7533 21.3742 22.1669V13.8132L12.6513 5.08269C12.5383 4.96875 12.4151 4.91178 12.2919 4.91178C12.1788 4.91178 12.0657 4.96875 11.9425 5.09438L3.2508 13.8702V22.1669Z" fill="white"/>
</svg>